<svg id="Capa_1" enable-background="new 0 0 512 512" height="512" viewBox="0 0 512 512" width="512" xmlns="http://www.w3.org/2000/svg"><g><path d="m398.91 121.699-111.094-109.138c-8.318-8.318-19.931-12.429-31.536-12.504-.097 0-.183-.042-.28-.051-.009-.002-.02-.006-.029-.006-11.711 0-53.394 4.167-61.67 12.444l12.131 17.556-93.459 91.816c-12.805 12.805-21.973 32.265-21.973 53.042v292.142c0 24.814 20.186 45 45 45h120 120c24.814 0 45-20.186 45-45v-292.142c0-20.039-7.808-38.877-22.09-53.159zm-142.91 88.301c-24.814 0-45-20.186-45-45 0-23.628 19.477-45 45-45 24.814 0 45 20.186 45 45s-20.186 45-45 45z" fill="#ff641a"/><g fill="#f03800"><path d="m421 467v-292.142c0-20.039-7.808-38.877-22.09-53.159l-111.094-109.138c-8.318-8.318-19.931-12.429-31.536-12.504-.097 0-.183-.042-.28-.051v119.994c24.814 0 45 20.186 45 45s-20.186 45-45 45v302h120c24.814 0 45-20.186 45-45z"/><path d="m331 406c0 8.401-6.599 15-15 15h-120c-8.401 0-15-6.599-15-15s6.599-15 15-15h120c8.401 0 15 6.599 15 15z"/><path d="m331 346c0 8.401-6.599 15-15 15h-120c-8.401 0-15-6.599-15-15s6.599-15 15-15h120c8.401 0 15 6.599 15 15z"/></g><path d="m256 120h-90c-25.334 0-45-21.469-45-45 0-24.814 20.186-45 45-45h40.432l17.869-17.556c8.276-8.277 19.958-12.444 31.67-12.444h-89.971c-41.353 0-75 33.647-75 75 0 40.203 33.492 75 75 75h90c8.291 0 15-6.709 15-15s-6.709-15-15-15z" fill="#5b362a"/><path d="m271 135c0-8.291-6.709-15-15-15v30c8.291 0 15-6.709 15-15z" fill="#38211a"/><path d="m331 406c0 8.401-6.599 15-15 15h-60v-30h60c8.401 0 15 6.599 15 15z" fill="#cd0000"/><path d="m316 361h-60v-30h60c8.401 0 15 6.599 15 15s-6.599 15-15 15z" fill="#cd0000"/></g></svg>