<svg id="Capa_1" enable-background="new 0 0 512 512" height="512" viewBox="0 0 512 512" width="512" xmlns="http://www.w3.org/2000/svg"><g><g><path d="m148.356 108.398h-19.756v-19.755c0-8.299-6.728-15.026-15.026-15.026s-15.027 6.728-15.027 15.026v19.756h-19.757c-8.299 0-15.027 6.728-15.027 15.027s6.728 15.027 15.027 15.027h19.757v19.757c0 8.299 6.728 15.027 15.027 15.027s15.026-6.728 15.026-15.027v-19.757h19.756c8.299 0 15.027-6.728 15.027-15.027s-6.728-15.028-15.027-15.028z" fill="#f1f1fa"/><path d="m467.374 365.915h-19.756v-19.756c0-8.299-6.728-15.026-15.027-15.026s-15.027 6.728-15.027 15.026v19.756h-19.757c-8.299 0-15.026 6.728-15.026 15.026s6.728 15.027 15.026 15.027h19.757v19.757c0 8.299 6.728 15.026 15.027 15.026s15.027-6.728 15.027-15.026v-19.757h19.756c8.299 0 15.027-6.728 15.027-15.027s-6.729-15.026-15.027-15.026z" fill="#ded8f8"/><path d="m458.989 200.762c7.283 0 13.668-5.462 14.835-12.639 1.038-6.383-2.298-12.913-8.079-15.81-5.129-2.571-11.409-1.966-15.95 1.54-4.987 3.85-7.031 10.618-5.061 16.592 2.002 6.07 7.854 10.317 14.255 10.317z" fill="#cac5ef"/><path d="m267.618 70.201c-5.601-3.418-12.886-2.794-17.822 1.532-4.64 4.066-6.276 10.81-4.101 16.564 2.182 5.773 7.866 9.725 14.051 9.725 6.937 0 13.102-4.963 14.648-11.702 1.416-6.175-1.365-12.817-6.776-16.119z" fill="#ded8f8"/><path d="m341.283 435.341c-5.22-3.572-12.356-3.46-17.439.322-5.135 3.821-7.337 10.698-5.314 16.781 2.024 6.085 7.843 10.312 14.265 10.312 6.827 0 12.914-4.787 14.573-11.39 1.512-6.01-.974-12.528-6.085-16.025z" fill="#f1f1fa"/></g><g><g><path d="m251.641 260.359c-6.033-6.033-6.033-15.814 0-21.847l233.988-233.987c6.033-6.033 15.814-6.033 21.847 0s6.033 15.814 0 21.847l-233.988 233.987c-6.033 6.033-15.814 6.033-21.847 0z" fill="#425796"/><path d="m507.475 4.525-255.834 255.834c6.033 6.033 15.814 6.033 21.847 0l233.987-233.987c6.033-6.033 6.033-15.815 0-21.847z" fill="#283758"/></g><g><g><g><path d="m281.924 343.677s-55.196 65.008-87.118 157.898c-2.717 7.907-11.232 12.214-19.211 9.717-18.374-5.75-53.232-22.629-102.745-72.142-49.512-49.512-66.392-84.37-72.141-102.745-2.497-7.98 1.809-16.494 9.717-19.211 92.89-31.922 157.898-87.118 157.898-87.118l64.083 49.518z" fill="#f4d844"/><path d="m194.806 501.575c31.922-92.891 87.118-157.898 87.118-157.898l-49.518-64.083-159.556 159.556c49.512 49.512 84.37 66.392 102.745 72.142 7.98 2.496 16.494-1.81 19.211-9.717z" fill="#ecbd2c"/></g><g><path d="m132.108 489.126 23.902-23.902c6.033-6.033 6.033-15.814 0-21.847s-15.814-6.033-21.847 0l-27.047 27.047c9.034 7.422 17.368 13.581 24.992 18.702z" fill="#e28023"/><path d="m68.623 355.99c-6.033-6.033-15.814-6.033-21.847 0l-23.902 23.902c5.122 7.624 11.28 15.957 18.702 24.992l27.047-27.047c6.032-6.033 6.032-15.814 0-21.847z" fill="#ecbd2c"/><g><path d="m72.85 439.15c3.783 3.783 7.47 7.353 11.081 10.765l57.514-57.514c6.033-6.033 6.033-15.814 0-21.847s-15.814-6.033-21.847 0l-57.514 57.514c3.413 3.612 6.983 7.299 10.766 11.082z" fill="#ecbd2c"/><path d="m141.445 370.555-68.595 68.595c3.783 3.783 7.47 7.353 11.081 10.765l57.514-57.514c6.033-6.032 6.033-15.814 0-21.846z" fill="#e28023"/></g></g></g><g><path d="m281.906 343.835-113.741-113.741 41.299-41.299c5.868-5.868 15.382-5.868 21.251 0l92.491 92.491c5.868 5.868 5.868 15.383 0 21.251z" fill="#425796"/><path d="m322.907 280.988-45.947-45.948-51.924 51.924 56.871 56.871 41.001-41.001c6.032-6.032 6.032-15.813-.001-21.846z" fill="#283758"/></g></g></g></g></svg>