<?xml version="1.0" encoding="iso-8859-1"?>
<!-- Generator: Adobe Illustrator 21.0.0, SVG Export Plug-In . SVG Version: 6.00 Build 0)  -->
<svg version="1.1" id="Capa_1" xmlns="http://www.w3.org/2000/svg" xmlns:xlink="http://www.w3.org/1999/xlink" x="0px" y="0px"
	 viewBox="0 0 587.697 587.697" style="enable-background:new 0 0 587.697 587.697;" xml:space="preserve">
<g>
	<g>
		<g id="flat_4_">
			<path style="fill:#DADDDF;" d="M587.697,415.441v141.858c0,16.79-13.608,30.398-30.398,30.398H101.327
				C45.364,587.697,0,542.332,0,486.37l0,0c0-55.963,45.364-101.327,101.327-101.327h455.971
				C574.088,385.043,587.697,398.651,587.697,415.441z"/>
			<path style="fill:#C1C7C9;" d="M101.327,385.043C45.364,385.043,0,430.407,0,486.37s45.364,101.327,101.327,101.327h91.194
				l202.654-202.654H101.327z"/>
			<rect x="445.839" y="425.573" style="fill:#FDA72F;" width="101.327" height="121.592"/>
			<rect x="303.981" y="425.573" style="fill:#FF8A3D;" width="101.327" height="121.592"/>
			<rect x="162.123" y="425.573" style="fill:#E34B87;" width="101.327" height="121.592"/>
			<path style="fill:#DADDDF;" d="M29.679,558.018L29.679,558.018c-39.568-39.568-39.568-103.728,0-143.297l352.699-352.81
				c11.865-11.876,31.118-11.876,42.993,0l0,0l100.314,100.314c11.865,11.865,11.865,31.118,0,42.983l-352.709,352.81
				C133.407,597.586,69.247,597.586,29.679,558.018z"/>
			<path style="fill:#C1C7C9;" d="M233.052,211.277L29.679,414.721c-39.396,39.74-39.112,103.901,0.628,143.297
				c39.497,39.153,103.171,39.153,142.668,0l60.077-60.097V211.277z"/>
			
				<rect x="360.363" y="115.748" transform="matrix(0.7071 -0.7071 0.7071 0.7071 -4.4487 342.3478)" style="fill:#87CED9;" width="101.326" height="121.591"/>
			
				<rect x="260.064" y="216.049" transform="matrix(0.7071 -0.7071 0.7071 0.7071 -104.7484 300.8033)" style="fill:#71C4D1;" width="101.326" height="121.591"/>
			
				<rect x="159.746" y="316.362" transform="matrix(0.7071 -0.7071 0.7071 0.7071 -205.0635 259.2483)" style="fill:#5EB3D1;" width="101.326" height="121.591"/>
			<path style="fill:#DADDDF;" d="M30.398,0h141.858c16.79,0,30.398,13.608,30.398,30.398V486.37
				c0,55.963-45.364,101.327-101.327,101.327l0,0C45.364,587.697,0,542.332,0,486.37V30.398C0,13.608,13.608,0,30.398,0z"/>
			<rect x="40.531" y="40.531" style="fill:#E34B87;" width="121.592" height="101.327"/>
			<rect x="40.531" y="182.389" style="fill:#D94881;" width="121.592" height="101.327"/>
			<rect x="40.531" y="324.246" style="fill:#BF3D75;" width="121.592" height="101.327"/>
			<circle style="fill:#C1C7C9;" cx="101.327" cy="506.635" r="30.398"/>
		</g>
	</g>
</g>
<g>
</g>
<g>
</g>
<g>
</g>
<g>
</g>
<g>
</g>
<g>
</g>
<g>
</g>
<g>
</g>
<g>
</g>
<g>
</g>
<g>
</g>
<g>
</g>
<g>
</g>
<g>
</g>
<g>
</g>
</svg>
