<svg id="Capa_1" enable-background="new 0 0 504.5 504.5" height="512" viewBox="0 0 504.5 504.5" width="512" xmlns="http://www.w3.org/2000/svg"><g><path d="m0 372.25c0 4.142 3.358 7.5 7.5 7.5h105v-15h-105c-4.142 0-7.5 3.358-7.5 7.5z" fill="#ffd06a"/><path d="m7.5 124.75c-4.142 0-7.5 3.358-7.5 7.5s3.358 7.5 7.5 7.5h105v-15z" fill="#ffd06a"/><path d="m0 312.25c0 4.142 3.358 7.5 7.5 7.5h105v-15h-105c-4.142 0-7.5 3.358-7.5 7.5z" fill="#ffd06a"/><path d="m0 192.25c0 4.142 3.358 7.5 7.5 7.5h105v-15h-105c-4.142 0-7.5 3.358-7.5 7.5z" fill="#ffd06a"/><path d="m278.5 26.25v452c124.816 0 226-101.184 226-226s-101.184-226-226-226z" fill="#7d8fe5"/><path d="m474.5 252.25c0-124.816-87.752-226-196-226-124.816 0-226 101.184-226 226s101.184 226 226 226c108.248 0 196-101.184 196-226z" fill="#95b0ed"/><path d="m278.5 418.25v-332c91.679 0 166 74.321 166 166s-74.321 166-166 166z" fill="#c4f3ff"/><path d="m414.5 252.25c0 91.679-60.889 166-136 166-91.679 0-166-74.321-166-166s74.321-166 166-166c75.111 0 136 74.321 136 166z" fill="#fff"/><path d="m142.5 244.75c-4.142 0-7.5 3.358-7.5 7.5s3.358 7.5 7.5 7.5h136v-15z" fill="#4e4cd3"/><path d="m263.5 252.25v-121c0-8.284 6.716-15 15-15s15 6.716 15 15v121z" fill="#7d8fe5"/><path d="m278.5 237.25h91c8.284 0 15 6.716 15 15s-6.716 15-15 15h-91z" fill="#666ddc"/><circle cx="278.5" cy="252.25" fill="#95b0ed" r="30"/><circle cx="278.5" cy="252.25" fill="#4e4cd3" r="7.5"/><g fill="#4a36b5"><circle cx="278.5" cy="388.25" r="7.5"/><circle cx="210.5" cy="370.029" r="7.5"/><circle cx="346.5" cy="134.471" r="7.5"/><circle cx="396.279" cy="184.25" r="7.5"/><circle cx="160.721" cy="320.25" r="7.5"/><circle cx="414.5" cy="252.25" r="7.5"/><circle cx="396.279" cy="320.25" r="7.5"/><circle cx="160.721" cy="184.25" r="7.5"/><circle cx="346.5" cy="370.029" r="7.5"/><circle cx="210.5" cy="134.471" r="7.5"/></g><path d="m112.5 259.75h-105c-4.142 0-7.5-3.358-7.5-7.5s3.358-7.5 7.5-7.5h105c4.142 0 7.5 3.358 7.5 7.5s-3.358 7.5-7.5 7.5z" fill="#ffd06a"/></g></svg>