<svg height="185pt" viewBox="-1 1 185 185.902" width="185pt" xmlns="http://www.w3.org/2000/svg"><path d="m68.652344 164.300781h31v18.597657h-31zm0 0" fill="#bcbcbc"/><path d="m56.253906 179.800781h55.796875v6.199219h-55.796875zm0 0" fill="#efefef"/><path d="m.453125 133.300781h167.398437v24.796875c0 3.425782-2.777343 6.203125-6.199218 6.203125h-155c-3.425782 0-6.199219-2.777343-6.199219-6.203125zm0 0" fill="#efefef"/><path d="m87.25 148.800781c0 1.710938-1.386719 3.097657-3.097656 3.097657-1.710938 0-3.101563-1.386719-3.101563-3.097657 0-1.714843 1.390625-3.101562 3.101563-3.101562 1.710937 0 3.097656 1.386719 3.097656 3.101562zm0 0" fill="#bcbcbc"/><path d="m6.652344 34.101562h155c3.421875 0 6.199218 2.773438 6.199218 6.199219v93h-167.398437v-93c0-3.425781 2.773437-6.199219 6.199219-6.199219zm0 0" fill="#75c1ff"/><path d="m136.851562 83.699219c0 6.847656-5.550781 12.402343-12.398437 12.402343s-12.402344-5.554687-12.402344-12.402343c0-6.847657 5.554688-12.398438 12.402344-12.398438s12.398437 5.550781 12.398437 12.398438zm0 0" fill="#cca63b"/><g fill="#ffd04a"><path d="m124.453125 99.199219c-8.546875 0-15.5-6.953125-15.5-15.5s6.953125-15.5 15.5-15.5 15.5 6.953125 15.5 15.5-6.957031 15.5-15.5 15.5zm0-24.800781c-5.128906 0-9.300781 4.171874-9.300781 9.300781 0 5.128906 4.171875 9.300781 9.300781 9.300781s9.300781-4.171875 9.300781-9.300781c0-5.128907-4.175781-9.300781-9.300781-9.300781zm0 0"/><path d="m177.152344 21.699219h6.199218v49.601562h-6.199218zm0 0"/><path d="m133.753906 21.699219h6.199219v62h-6.199219zm0 0"/></g><path d="m180.25 71.300781c0 6.847657-5.550781 12.398438-12.398438 12.398438-6.847656 0-12.398437-5.550781-12.398437-12.398438 0-6.847656 5.550781-12.402343 12.398437-12.402343 6.847657 0 12.398438 5.554687 12.398438 12.402343zm0 0" fill="#cca63b"/><path d="m167.851562 86.800781c-8.546874 0-15.5-6.953125-15.5-15.5s6.953126-15.5 15.5-15.5c8.546876 0 15.5 6.953125 15.5 15.5s-6.953124 15.5-15.5 15.5zm0-24.800781c-5.128906 0-9.300781 4.171875-9.300781 9.300781 0 5.128907 4.171875 9.296875 9.300781 9.296875 5.128907 0 9.300782-4.167968 9.300782-9.296875 0-5.128906-4.171875-9.300781-9.300782-9.300781zm0 0" fill="#ffd04a"/><path d="m136.851562 21.699219h43.398438v-12.398438c0-3.425781-2.773438-6.199219-6.199219-6.199219h-31c-3.421875 0-6.199219 2.773438-6.199219 6.199219zm0 0" fill="#cca63b"/><path d="m183.351562 24.800781h-49.601562v-15.5c0-5.128906 4.171875-9.300781 9.300781-9.300781h31c5.128907 0 9.300781 4.171875 9.300781 9.300781zm-43.398437-6.199219h37.199219v-9.300781c0-1.710937-1.390625-3.101562-3.101563-3.101562h-31c-1.710937 0-3.097656 1.390625-3.097656 3.101562zm0 0" fill="#ffd04a"/><path d="m112.050781 52.699219h6.199219v6.199219h-6.199219zm0 0" fill="#707070"/><path d="m59.78125 68.902344c-.15625 0-.316406-.007813-.476562-.019532-2.050782-.15625-3.890626-1.320312-4.910157-3.101562l-7.507812-13.148438-5.675781 9.457032c-1.125 1.863281-3.140626 3.003906-5.3125 3.011718h-10.648438v-6.203124h10.644531l5.675781-9.453126c1.136719-1.882812 3.179688-3.027343 5.382813-3.011718 2.203125.011718 4.234375 1.203125 5.316406 3.121094l7.507813 13.148437 7.386718-9.234375c2.140626-2.675781 6.046876-3.105469 8.722657-.964844.175781.140625.347656.292969.507812.453125l7.757813 7.757813 6.199218-6.199219c1.164063-1.160156 2.742188-1.8125 4.382813-1.816406h11.117187v6.199219h-11.117187l-6.199219 6.203124c-2.453125 2.34375-6.3125 2.34375-8.765625 0l-7.761719-7.761718-7.386718 9.234375c-1.175782 1.472656-2.957032 2.328125-4.839844 2.328125zm0 0" fill="#707070"/><path d="m12.851562 58.898438h6.199219v6.203124h-6.199219zm0 0" fill="#707070"/><path d="m50.050781 102.300781c0 10.273438-8.328125 18.597657-18.597656 18.597657-10.273437 0-18.601563-8.324219-18.601563-18.597657 0-10.273437 8.328126-18.601562 18.601563-18.601562 10.269531 0 18.597656 8.328125 18.597656 18.601562zm0 0" fill="#82e28c"/><path d="m50.050781 102.300781h-12.398437c-3.425782 0-6.203125-2.777343-6.203125-6.199219v-12.402343c10.273437 0 18.601562 8.328125 18.601562 18.601562zm0 0" fill="#73c97c"/><path d="m65.550781 108.5h83.703125c1.710938 0 3.097656 1.386719 3.097656 3.101562v6.199219c0 1.710938-1.386718 3.097657-3.097656 3.097657h-83.703125c-1.710937 0-3.097656-1.386719-3.097656-3.097657v-6.199219c0-1.714843 1.386719-3.101562 3.097656-3.101562zm0 0" fill="#e6a75e"/><path d="m65.550781 83.699219h18.601563c1.710937 0 3.097656 1.386719 3.097656 3.101562v6.199219c0 1.710938-1.386719 3.101562-3.097656 3.101562h-18.601563c-1.710937 0-3.097656-1.390624-3.097656-3.101562v-6.199219c0-1.714843 1.386719-3.101562 3.097656-3.101562zm0 0" fill="#ff675b"/></svg>