<svg id="Capa_1" enable-background="new 0 0 497 497" height="512" viewBox="0 0 497 497" width="512" xmlns="http://www.w3.org/2000/svg"><g><path d="m60 248.5c0-104.106 84.394-188.5 188.5-188.5v-30c-120.674 0-218.5 97.826-218.5 218.5s97.826 218.5 218.5 218.5v-30c-104.106 0-188.5-84.394-188.5-188.5z" fill="#7d8fe5"/><path d="m248.5 30v30c104.106 0 188.5 84.394 188.5 188.5s-84.394 188.5-188.5 188.5v30c120.674 0 218.5-97.826 218.5-218.5s-97.826-218.5-218.5-218.5z" fill="#666ddc"/><path d="m248.5 98.5v30c66.274 0 120 53.726 120 120s-53.726 120-120 120v30c82.843 0 150-67.157 150-150s-67.157-150-150-150z" fill="#ff336d"/><path d="m128.5 248.5c0-66.274 53.726-120 120-120v-30c-82.843 0-150 67.157-150 150s67.157 150 150 150v-30c-66.274 0-120-53.726-120-120z" fill="#ff545a"/><path d="m248.5 188.5v120c33.137 0 60-26.863 60-60s-26.863-60-60-60z" fill="#acd2f6"/><path d="m278.5 248.5c0-33.137-13.431-60-30-60-33.137 0-60 26.863-60 60s26.863 60 60 60c16.569 0 30-26.863 30-60z" fill="#c4f3ff"/><path d="m143.5 233.5h-128.5c-8.284 0-15 6.716-15 15s6.716 15 15 15h128.5c8.284 0 15-6.716 15-15s-6.716-15-15-15z" fill="#7d8fe5"/><g fill="#666ddc"><path d="m482 233.5h-128.5c-8.284 0-15 6.716-15 15s6.716 15 15 15h128.5c8.284 0 15-6.716 15-15s-6.716-15-15-15z"/><path d="m248.5 0c-8.284 0-15 6.716-15 15v128.5c0 8.284 6.716 15 15 15s15-6.716 15-15v-128.5c0-8.284-6.716-15-15-15z"/><path d="m248.5 338.5c-8.284 0-15 6.716-15 15v128.5c0 8.284 6.716 15 15 15s15-6.716 15-15v-128.5c0-8.284-6.716-15-15-15z"/></g><path d="m278.5 256h-30c-4.142 0-7.5-3.358-7.5-7.5v-30c0-4.142 3.358-7.5 7.5-7.5 4.143 0 7.5 3.358 7.5 7.5v22.5h22.5c4.143 0 7.5 3.358 7.5 7.5s-3.357 7.5-7.5 7.5z" fill="#4a36b5"/></g></svg>