<svg id="Capa_1" enable-background="new 0 0 512 512" height="512" viewBox="0 0 512 512" width="512" xmlns="http://www.w3.org/2000/svg"><g><path d="m437 31c-8.291 0-15 6.709-15 15v180c0 8.291 6.709 15 15 15s15-6.709 15-15v-162.237c17.422 6.213 30 22.707 30 42.237v30c0 8.291 6.709 15 15 15s15-6.709 15-15v-30c0-41.353-33.633-75-75-75z" fill="#59b348"/><path d="m272 376c0 8.291 6.709 15 15 15s15-6.709 15-15v-169.195l-30-19.999z" fill="#4d6aff"/><path d="m90 436c0 8.291 6.709 15 15 15s15-6.709 15-15v-199.195l-30 40.001z" fill="#5990ff"/><ellipse cx="60" cy="436" fill="#66b3ff" rx="60" ry="45"/><path d="m242 331c-18.197 0-35.081 5.907-46 15.214-9.261 7.896-15 18.203-15 29.786s5.739 21.89 15 29.786c10.919 9.307 27.803 15.214 46 15.214 33.633 0 60-19.761 60-45s-26.367-45-60-45z" fill="#5990ff"/><path d="m135 91c-24.814 0-45-20.186-45-45 0-8.291-6.709-15-15-15s-15 6.709-15 15c0 24.814-20.186 45-45 45-8.291 0-15 6.709-15 15s6.709 15 15 15c24.814 0 45 20.186 45 45 0 8.291 6.709 15 15 15s15-6.709 15-15c0-24.814 20.186-45 45-45 8.291 0 15-6.709 15-15s-6.709-15-15-15z" fill="#ffbe40"/><path d="m497 391c-24.814 0-45-20.186-45-45 0-8.291-6.709-15-15-15s-15 6.709-15 15c0 24.814-20.186 45-45 45-8.291 0-15 6.709-15 15s6.709 15 15 15c24.814 0 45 20.186 45 45 0 8.291 6.709 15 15 15s15-6.709 15-15c0-24.814 20.186-45 45-45 8.291 0 15-6.709 15-15s-6.709-15-15-15z" fill="#ff9f40"/><path d="m392 181c-33.633 0-60 19.761-60 45s26.367 45 60 45 32.147-19.761 32.147-45 1.486-45-32.147-45z" fill="#a0e65c"/><path d="m452 226c0-25.239-26.367-45-60-45v90c33.633 0 60-19.761 60-45z" fill="#79cc52"/><path d="m282.254 151.776-86.254 28.418-95.746 31.582c-6.123 2.036-10.254 7.764-10.254 14.224v50.806l106-35.001 106-35.001v-40.804c0-10.26-10.146-17.516-19.746-14.224z" fill="#66b3ff"/><path d="m302 166c0-10.26-10.146-17.516-19.746-14.224l-86.254 28.418v61.611l106-35.001z" fill="#5990ff"/></g></svg>