<svg id="Capa_1" enable-background="new 0 0 512 512" height="512" viewBox="0 0 512 512" width="512" xmlns="http://www.w3.org/2000/svg"><g><path d="m509.888 198.077-26.98 12.383-226.908 104.171-253.888-116.554c1.298-2.668 3.183-5.068 5.573-6.964.01-.01.021-.021.031-.031.021-.01.031-.031.051-.041.052-.041.103-.082.155-.124l235.396-183.784c7.458-5.821 17.905-5.821 25.363 0l235.396 183.784c.052.041.103.082.155.124.021.01.031.031.051.041.01.01.021.021.031.031 2.39 1.895 4.276 4.295 5.574 6.964z" fill="#ffc250"/><path d="m447.479 314.631h-382.959v-243.722c0-11.379 9.225-20.604 20.604-20.604h341.752c11.379 0 20.604 9.225 20.604 20.604v243.722z" fill="#f4fbff"/><path d="m447.479 314.631h-24.976v-264.325h4.372c11.379 0 20.604 9.225 20.604 20.604z" fill="#ddeafb"/><path d="m512 207.152v281.476c0 11.379-9.225 20.604-20.604 20.604h-470.792c-11.379 0-20.604-9.224-20.604-20.603v-281.477c0-3.183.742-6.284 2.112-9.076l245.292 112.608c5.457 2.505 11.735 2.505 17.192 0l218.311-100.225 26.98-12.383c1.371 2.792 2.113 5.893 2.113 9.076z" fill="#ffe07d"/><path d="m512 207.152v281.476c0 11.383-9.22 20.604-20.604 20.604h-8.489v-298.773l26.98-12.383c1.371 2.792 2.113 5.893 2.113 9.076z" fill="#ffd064"/><path d="m116.657 465.525h-70.374c-5.69 0-10.302-4.612-10.302-10.302v-12.697c0-5.69 4.612-10.302 10.302-10.302h70.375c5.69 0 10.302 4.612 10.302 10.302v12.697c-.001 5.69-4.613 10.302-10.303 10.302z" fill="#e28086"/><g><g><g><path d="m322.691 193.828c5.872-11.175 9.022-24.002 8.549-37.609-1.383-39.836-34.18-71.98-74.036-72.603-42.132-.659-76.492 33.297-76.492 75.278 0 12.602 3.104 24.475 8.581 34.908 3.712 7.07 2.377 15.732-3.269 21.378-3.564 3.564-3.564 9.342 0 12.906l9.338 9.338c3.531 3.531 9.441 3.76 12.823.086 1.604-1.743 4.466-.597 4.466 1.73v13.192c0 5.04 4.086 9.126 9.126 9.126h34.223 34.221c5.04 0 9.126-4.086 9.126-9.126v-13.192c0-2.327 2.862-3.473 4.466-1.73 3.383 3.674 9.292 3.446 12.823-.086l9.338-9.338c3.564-3.564 3.564-9.342 0-12.906-5.638-5.639-6.992-14.293-3.283-21.352z" fill="#e28086"/><path d="m322.691 193.828c5.872-11.175 9.022-24.002 8.549-37.609-.464-13.359-4.474-25.844-11.085-36.574.002.25.01.499.01.75 0 57.172-46.347 103.52-103.52 103.52-11.454 0-22.471-1.864-32.771-5.299-1.121 3.205-.412 6.909 2.15 9.471l9.338 9.338c3.531 3.532 9.441 3.76 12.823.086 1.604-1.743 4.466-.597 4.466 1.73v13.192c0 5.04 4.086 9.126 9.126 9.126h34.223 34.221c5.04 0 9.126-4.086 9.126-9.126v-13.193c0-2.327 2.862-3.473 4.466-1.73 3.383 3.674 9.292 3.446 12.823-.086l9.338-9.338c3.564-3.564 3.564-9.342 0-12.906-5.638-5.639-6.992-14.293-3.283-21.352z" fill="#dd636e"/></g></g></g><g><path d="m85.333 373.349h-41.626c-4.267 0-7.726-3.459-7.726-7.726s3.459-7.726 7.726-7.726h41.626c4.267 0 7.726 3.459 7.726 7.726.001 4.267-3.458 7.726-7.726 7.726z" fill="#e49542"/></g><g><path d="m85.333 406.65h-41.626c-4.267 0-7.726-3.459-7.726-7.726s3.459-7.726 7.726-7.726h41.626c4.267 0 7.726 3.459 7.726 7.726s-3.458 7.726-7.726 7.726z" fill="#e49542"/></g><g fill="#f4fbff"><path d="m298.467 184.875c0 8.331-6.753 15.084-15.084 15.084s-15.084-6.753-15.084-15.084 7.32-12.064 15.084-15.084c16.97-6.599 15.084 6.754 15.084 15.084z"/><path d="m213.532 184.875c0 8.331 6.753 15.084 15.084 15.084s15.084-6.753 15.084-15.084-7.32-12.064-15.084-15.084c-16.969-6.599-15.084 6.754-15.084 15.084z"/><path d="m270.569 226.8c0 8.046-6.523 8.741-14.569 8.741s-14.569-.695-14.569-8.741 6.523-20.397 14.569-20.397 14.569 12.351 14.569 20.397z"/></g></g></svg>