<svg id="Layer_1" height="512" viewBox="0 0 512 512" width="512" xmlns="http://www.w3.org/2000/svg" data-name="Layer 1"><path d="m500.79 210.846-11.124-29.522a25.478 25.478 0 0 0 -33.666-10.414l-24 9.7v-116.61a56 56 0 0 0 -56-56h-63.89a56 56 0 0 0 -56 56v400h183.89v-192l52.022-27.175a25.478 25.478 0 0 0 8.768-33.979z" fill="#fe9e4a"/><g fill="#7a3909"><path d="m360 392h16v40h-16z"/><path d="m400 392h16v40h-16z"/><path d="m320 96h16v40h-16z"/><path d="m360 96h16v40h-16z"/></g><circle cx="56" cy="128" fill="#fe9e4a" r="24"/><path d="m196.364 145.009 25.009 13.677-25.009 13.678-13.678 25.009-13.677-25.009-25.009-13.678 25.009-13.677 13.677-25.009z" fill="#90e3f5"/><path d="m32 176h16v16h-16z" fill="#087182"/><path d="m360 340h32v-32h-32v-40a56 56 0 0 0 -56-56h-47.89v252h84.312z" fill="#232626" opacity=".2"/><path d="m336 320v-40a56 56 0 0 0 -56-56h-172v96z" fill="#a95a18"/><path d="m16 352 16 152h137.882l14.118-152z" fill="#90e3f5"/><path d="m184 352-14.118 152h142.118l24-152z" fill="#0f8ca8"/><path d="m8 320h360v32h-360z" fill="#087182"/><path d="m254.967 406.967 13.678-25.009 13.677 25.009 25.009 13.678-25.009 13.677-13.677 25.009-13.678-25.009-25.009-13.677z" fill="#fe9e4a"/><path d="m120 384h16v16h-16z" fill="#fff"/><path d="m80 224h40a56 56 0 0 1 56 56v40a0 0 0 0 1 0 0h-152a0 0 0 0 1 0 0v-40a56 56 0 0 1 56-56z" fill="#fe9e4a"/><path d="m64 280h16v16h-16z" fill="#a95a18"/><path d="m112 280h16v16h-16z" fill="#a95a18"/><path d="m88 256h16v16h-16z" fill="#a95a18"/></svg>