<svg id="Layer_1" height="512" viewBox="0 0 512 512" width="512" xmlns="http://www.w3.org/2000/svg" data-name="Layer 1"><path d="m56 192 32.983-105.545a32 32 0 0 1 30.543-22.455h247.489a32 32 0 0 1 31.045 24.239l25.94 103.761z" fill="#90e3f5"/><circle cx="40" cy="40" fill="#90e3f5" r="24"/><path d="m451.636 33.009 13.678-25.009 13.677 25.009 25.009 13.677-25.009 13.678-13.677 25.009-13.678-25.009-25.009-13.678z" fill="#f69038"/><path d="m187.636 451.636 13.678-25.009 13.677 25.009 25.009 13.678-25.009 13.677-13.677 25.009-13.678-25.009-25.009-13.677z" fill="#90e3f5"/><g fill="#f69038"><path d="m257.009 113.009 13.677-25.009 13.678 25.009 25.009 13.677-25.009 13.678-13.678 25.009-13.677-25.009-25.009-13.678z"/><path d="m184 24h16v16h-16z"/><path d="m56 464h16v16h-16z"/><path d="m301.571 384h-263.571a30 30 0 0 1 -30-30v-132a30 30 0 0 1 30-30h404a30 30 0 0 1 30 30v138"/></g><path d="m56 384h88a0 0 0 0 1 0 0v28a20 20 0 0 1 -20 20h-48a20 20 0 0 1 -20-20v-28a0 0 0 0 1 0 0z" fill="#7a3909"/><circle cx="72" cy="256" fill="#076372" r="32"/><path d="m385.008 248a32 32 0 1 1 54.992 29.166" fill="#076372"/><path d="m48 328h288v32h-288z" fill="#7a3909"/><path d="m63.5 168h-55.5v-40h40l23.172 15.448z" fill="#f69038"/><path d="m418 168h62v-40h-40l-27.429 18.286z" fill="#f69038"/><path d="m304 280h-160v-32h192" fill="#7a3909"/><path d="m432.471 332.915 7.351-48.169a30 30 0 0 0 -29.232-36.746h-76.577a30 30 0 0 0 -29.232 36.746l13.963 60.508a30 30 0 0 1 0 13.492l-8.14 35.273-5.824 25.235a30 30 0 0 0 29.233 36.746h41.987z" fill="#0f8ca8"/><path d="m181.381 92.651h217.782l-1.1-4.412a32 32 0 0 0 -31.048-24.239h-247.489a32 32 0 0 0 -30.543 22.455l-32.983 105.545h44s17.121-94.4 81.381-99.349z" fill="#fafcfc" opacity=".3"/><path d="m331.643 419.254 5.824-25.235 8.14-35.273a30 30 0 0 0 0-13.492l-13.964-60.508a30 30 0 0 1 29.231-36.746h-26.861a30 30 0 0 0 -29.232 36.746l13.963 60.508a30 30 0 0 1 0 13.492l-8.14 35.273-5.823 25.235a30 30 0 0 0 29.232 36.746h26.861a30 30 0 0 1 -29.231-36.746z" fill="#1cb9d3"/><path d="m392 512v-40c-32-24-32-56-32-56l-40-16c-32-16-24-48-24-48l88 24 49.33-43.849a20 20 0 0 1 32.261 8.624l21.382 66.978a20 20 0 0 1 -1.608 16.247l-21.365 40v48" fill="#f9ac78"/><path d="m40.064 254a30 30 0 0 1 30-30h401.936v-2a30 30 0 0 0 -30-30h-404a30 30 0 0 0 -30 30v132a30 30 0 0 0 30 30h2.064z" fill="#fafcfc" opacity=".3"/></svg>