<svg id="Layer_1" height="512" viewBox="0 0 512 512" width="512" xmlns="http://www.w3.org/2000/svg" data-name="Layer 1"><path d="m152 16-120 48 112 240 99.411-41.421z" fill="#0f8ca8"/><path d="m168 294 23 30.752a41.065 41.065 0 0 1 9 25.653v49.595h112l28.809-136-172.809-16z" fill="#f4a56e"/><path d="m137.706 21.718v258.282h129.764l-24.059-17.421-91.411-246.579z" fill="#232626" opacity=".2"/><g fill="#f69038"><path d="m296 59.294v-51.294h-144v256h104z"/><path d="m144 400h16v16h-16z"/><path d="m416 24h16v16h-16z"/><path d="m32 144h16v16h-16z"/><circle cx="28" cy="236" r="20"/></g><circle cx="404" cy="388" fill="#90e3f5" r="20"/><path d="m478.142 227.727 25.858 14.142-25.858 14.142-14.142 25.858-14.142-25.858-25.858-14.142 25.858-14.142 14.142-25.858z" fill="#f69038"/><path d="m102.142 337.858 25.858 14.142-25.858 14.142-14.142 25.858-14.142-25.858-25.858-14.142 25.858-14.142 14.142-25.858z" fill="#90e3f5"/><path d="m207.716 96.284h40v40h-40z" fill="#fff" transform="matrix(-.707 .707 -.707 -.707 470.96 37.49)"/><path d="m80 80h24v24h-24z" fill="#fff" transform="matrix(0 1 -1 0 184 0)"/><path d="m180.971 35.029h24v24h-24z" fill="#fff" transform="matrix(-.707 .707 -.707 -.707 362.676 -56.167)"/><path d="m218.333 264h37.667l40-204.706v-32.684l-132.534 201.762z" fill="#232626" opacity=".2"/><path d="m354.508 254.044 101.492-150.044-136-80-136 200 124.253 80.684" fill="#90e3f5"/><path d="m304.284 143.716h40v40h-40z" fill="#fff" transform="matrix(-1 0 0 -1 648.569 327.431)"/><path d="m320 72h24v24h-24z" fill="#fff" transform="matrix(-1 0 0 -1 664 168)"/><path d="m288 208s-16 32 0 56l32 32 24-24z" fill="#232626" opacity=".2"/><path d="m200 512v-104s-8-88 96-88l32-40s-48-24-40-72l73.455 50.853a40 40 0 0 1 11.709 53.168l-61.164 87.979v112" fill="#ffbe92"/></svg>