<svg id="Layer_1" height="512" viewBox="0 0 512 512" width="512" xmlns="http://www.w3.org/2000/svg" data-name="Layer 1"><path d="m177.334 270.98a168.018 168.018 0 1 1 206.666 105.685" fill="#90e3f5"/><path d="m229.55 270.981a119.991 119.991 0 1 1 154.45 54.619" fill="#46d9e8"/><circle cx="136" cy="72" fill="#f69038" r="24"/><path d="m67.636 179.636 13.678-25.009 13.677 25.009 25.009 13.678-25.009 13.677-13.677 25.009-13.678-25.009-25.009-13.677z" fill="#90e3f5"/><path d="m315.355 160.281 27.356-8.012-8.013 27.355 8.013 27.355-27.356-8.012-27.355 8.012 8.012-27.355-8.012-27.355z" fill="#fff"/><path d="m462.991 412.657 25.009 13.678-25.009 13.677-13.677 25.009-13.678-25.009-25.009-13.677 25.009-13.678 13.678-25.009z" fill="#90e3f5"/><path d="m392 224h16v16h-16z" fill="#fff"/><path d="m72 448h16v16h-16z" fill="#90e3f5"/><path d="m24 104h16v16h-16z" fill="#90e3f5"/><path d="m8 367.622.184 16c9.881 0 19.108 12.938 24.589 21.159l.285.428a23.384 23.384 0 0 0 19.457 10.413h287.157a23.384 23.384 0 0 0 19.582-10.6c5.456-8.359 14.764-21.4 24.746-21.4v-16z" fill="#087182"/><path d="m8 319.622.184 16c9.881 0 19.108 12.938 24.589 21.159l.285.428a23.384 23.384 0 0 0 19.457 10.413h287.157a23.384 23.384 0 0 0 19.582-10.6c5.456-8.359 14.764-21.4 24.746-21.4v-16z" fill="#a95a18"/><path d="m8 271.622.184 16c9.881 0 19.108 12.938 24.589 21.159l.285.428a23.384 23.384 0 0 0 19.457 10.413h287.157a23.384 23.384 0 0 0 19.582-10.6c5.456-8.359 14.764-21.4 24.746-21.4v-16z" fill="#f69038"/><path d="m359.254 309.02c5.457-8.359 14.764-21.4 24.746-21.4v-16h-48v16c-9.982 0-19.29 13.039-24.746 21.4a23.384 23.384 0 0 1 -19.582 10.6h44.328v16c-9.982 0-19.29 13.039-24.746 21.4a23.384 23.384 0 0 1 -19.582 10.6h44.328v16c-9.982 0-19.29 13.039-24.746 21.4a23.384 23.384 0 0 1 -19.582 10.6h48a23.384 23.384 0 0 0 19.582-10.6c5.457-8.359 14.764-21.4 24.746-21.4v-16h-44.328a23.384 23.384 0 0 0 19.582-10.6c5.457-8.359 14.764-21.4 24.746-21.4v-16h-44.328a23.384 23.384 0 0 0 19.582-10.6z" fill="#232626" opacity=".2"/><path d="m378.043 52.926a168.123 168.123 0 0 0 -200.709 218.054l1.995 1.02h76.671c-17.655-129.471 72.918-194 122.043-219.074z" fill="#fafcfc" opacity=".3"/></svg>