<svg id="Layer_1" height="512" viewBox="0 0 512 512" width="512" xmlns="http://www.w3.org/2000/svg" data-name="Layer 1"><path d="m448 512v-88l40-72 16-128-104-96-79.306 250.775 15.306 61.225v72" fill="#ffbe92"/><path d="m416 200 40 32-51.785 155.355-26.827 46.033-57.388-57.388z" fill="#ef9456"/><circle cx="216" cy="208" fill="#90e3f5" r="200"/><circle cx="215.811" cy="207.811" fill="#0f8ca8" r="159.811"/><g fill="#fff"><path d="m400 248h-16a24 24 0 0 0 -48 0h-16a40 40 0 0 1 80 0z"/><path d="m226.912 245.657-11.312-11.314a24 24 0 1 0 -33.943-33.943l-11.313-11.313a40 40 0 1 1 56.568 56.568z"/><path d="m351.638 216h-16v-17.045a24.161 24.161 0 0 0 -48.322 0h-16a40.161 40.161 0 0 1 80.322 0z"/></g><circle cx="272" cy="264" fill="#90e3f5" r="24"/><circle cx="120" cy="176" fill="#fff" r="24"/><path d="m211.355 90.355 35.356-10.355-10.356 35.355 10.356 35.356-35.356-10.356-35.355 10.356 10.355-35.356-10.355-35.355z" fill="#90e3f5"/><path d="m425.303 16.012 27.355-8.012-8.012 27.355 8.012 27.356-27.355-8.013-27.356 8.013 8.013-27.356-8.013-27.355z" fill="#fe9e4a"/><path d="m440 368.958-120-96s-16 40 8 64l40 48s-8 24 24 56" fill="#ffbe92"/><path d="m112 208c0-93.909 64.729-172.687 152-194.187a200.422 200.422 0 0 0 -48-5.813c-110.457 0-200 89.543-200 200s89.543 200 200 200a200.425 200.425 0 0 0 48-5.813c-87.271-21.5-152-100.278-152-194.187z" fill="#fafcfc" opacity=".3"/><path d="m88 338.958v-106.958h104v142.958z" fill="#f69038"/><path d="m160 264h16v24h-16z" fill="#fff"/><path d="m80 512v-40l-56-104c-24-78 64-88 64-88l56 72 64-48 24 40-48 64v104" fill="#ffbe92"/><path d="m72 392c-40-64 16-112 16-112s-88 10-64 88l56 104v40h34.953c2.952-40-2.953-56-42.953-120z" fill="#fafcfc" opacity=".3"/></svg>