<svg id="Layer_1" height="512" viewBox="0 0 512 512" width="512" xmlns="http://www.w3.org/2000/svg" data-name="Layer 1"><circle cx="216" cy="360" fill="#90e3f5" r="24"/><path d="m308.645 249.302 27.355-8.013-8.012 27.356 8.012 27.355-27.355-8.012-27.356 8.012 8.013-27.355-8.013-27.356z" fill="#f69038"/><path d="m440 8h32v376h-32z" fill="#90e3f5"/><path d="m104 8h32v376h-32z" fill="#a95a18"/><path d="m504 383.642-144 .358-96 120h144z" fill="#0f8ca8"/><path d="m504 383.642v120.358h-96z" fill="#087182"/><path d="m264 504h144l31.905-40h-79.905z" fill="#90e3f5"/><path d="m360 384-96 120 96-40z" fill="#46d9e8"/><path d="m360 384v80h79.905l64.095-80.358z" fill="#0f8ca8"/><path d="m104 384-56 40h136l-48-40z" fill="#a95a18"/><path d="m232 504h-224l16-80h192z" fill="#f69038"/><path d="m57.297 448h16v56h-16z" fill="#7a3909"/><path d="m108.648 448h16v56h-16z" fill="#7a3909"/><path d="m160 448h16v56h-16z" fill="#7a3909"/><g fill="#90e3f5"><path d="m200 264h16v16h-16z"/><path d="m296 360h16v16h-16z"/><path d="m32 360h16v16h-16z"/></g></svg>