<svg id="Layer_1" height="512" viewBox="0 0 512 512" width="512" xmlns="http://www.w3.org/2000/svg" data-name="Layer 1"><circle cx="72" cy="256" fill="#f69038" r="24"/><path d="m35.355 357 27.356-8.012-8.013 27.355 8.013 27.355-27.356-8.012-27.355 8.012 8.012-27.355-8.012-27.355z" fill="#90e3f5"/><path d="m24 480h152v24h-152z" fill="#7a3909"/><path d="m448 504h-194a30 30 0 0 1 -30-30v-176a90 90 0 0 1 90-90h44a90 90 0 0 1 90 90z" fill="#90e3f5"/><path d="m319.714 208h-5.714a90 90 0 0 0 -90 90v176a30 30 0 0 0 30 30h130v-206c0-49.706-28.782-90-64.286-90z" fill="#90e3f5"/><path d="m358 208h-38.286c35.5 0 64.286 40.294 64.286 90v206h64v-206a90 90 0 0 0 -90-90z" fill="#0f8ca8"/><ellipse cx="448" cy="456" fill="#f69038" rx="40" ry="48"/><path d="m256 368h96a0 0 0 0 1 0 0v58a30 30 0 0 1 -30 30h-36a30 30 0 0 1 -30-30v-58a0 0 0 0 1 0 0z" fill="#0f8ca8"/><path d="m296 209.801v-33.801h64v32" fill="#f69038"/><circle cx="304" cy="296" fill="#0f8ca8" r="40"/><path d="m120 440 64-312h32l-64 312z" fill="#f69038"/><path d="m184 88v8h32v-6.476a50.463 50.463 0 0 1 7.006-25.772l-32.196-8.052a79.691 79.691 0 0 0 -6.81 32.3z" fill="#a95a18"/><g fill="#7a3909"><path d="m190.81 55.7 32.2 8.049a49.032 49.032 0 0 1 16.141-16.6l-23.151-23.149a80.272 80.272 0 0 0 -25.19 31.7z"/><path d="m184 96h32v32h-32z"/><path d="m312 104h32v32h-32z"/></g><path d="m312 136h32v40h-32z" fill="#a95a18"/><path d="m320.569 31.431-22.853 22.853a49.739 49.739 0 0 1 11.184 17.716h33.5a79.837 79.837 0 0 0 -21.831-40.569z" fill="#7a3909"/><path d="m308.9 72a50.787 50.787 0 0 1 3.1 17.524v14.476h32v-16a80.355 80.355 0 0 0 -1.6-16z" fill="#a95a18"/><path d="m216 24 23.148 23.148a46.791 46.791 0 0 1 16.852-6.448v-32.3a79.58 79.58 0 0 0 -40 15.6z" fill="#a95a18"/><path d="m296.912 15.088-25.5 25.5a47.348 47.348 0 0 1 26.305 13.695l22.853-22.852a80.158 80.158 0 0 0 -23.658-16.343z" fill="#a95a18"/><path d="m264 8c-2.7 0-5.368.138-8 .4v32.3a46.825 46.825 0 0 1 8-.7 46.9 46.9 0 0 1 7.411.589l25.5-25.5a79.673 79.673 0 0 0 -32.911-7.089z" fill="#7a3909"/><path d="m280 392h16v24h-16z" fill="#fcfbfa"/><path d="m96 312h16v16h-16z" fill="#7a3909"/><path d="m184 424h16v16h-16z" fill="#90e3f5"/><path d="m56 432h16v16h-16z" fill="#7a3909"/><path d="m0 293h16v16h-16z" fill="#90e3f5"/><path d="m88 480 32-40h32v40z" fill="#a95a18"/><path d="m277 474v-176a90.035 90.035 0 0 1 62.417-85.688 47.725 47.725 0 0 0 -19.7-4.312h-5.717a90 90 0 0 0 -90 90v176a30 30 0 0 0 30 30h53a30 30 0 0 1 -30-30z" fill="#fafcfc" opacity=".3"/><path d="m184 128-64 312h16l64-312z" fill="#fafcfc" opacity=".3"/><path d="m460 410.2c-16.228 6.117-28 24.307-28 45.8s11.772 39.682 28 45.8c16.228-6.117 28-24.307 28-45.8s-11.772-39.682-28-45.8z" fill="#a95a18"/></svg>