<svg id="Layer_1" height="512" viewBox="0 0 512 512" width="512" xmlns="http://www.w3.org/2000/svg" data-name="Layer 1"><path d="m0 416h512v96h-512z" fill="#90e3f5"/><path d="m192.628 216a34 34 0 0 0 -26.837 13.126l-101.791 130.874h344v-32l72-56v-56zm255.372 40-56 40h-124a28 28 0 0 1 -28-28 28 28 0 0 1 28-28h180z" fill="#f69038"/><circle cx="268" cy="84" fill="#f69038" r="20"/><circle cx="28" cy="324" fill="#90e3f5" r="20"/><path d="m24 152h16v16h-16z" fill="#f69038"/><path d="m184 312h16v16h-16z" fill="#fff"/><path d="m150.142 105.858 25.858 14.142-25.858 14.142-14.142 25.858-14.142-25.858-25.858-14.142 25.858-14.142 14.142-25.858z" fill="#90e3f5"/><path d="m384 392h-328l8-32h320z" fill="#a95a18"/><path d="m272 168v64a40 40 0 0 0 40 40h60a20 20 0 0 0 20-20v-44l11.736-5.639a50 50 0 0 0 36.264-48.076v-18.285l40-32-56-56z" fill="#ffbe92"/><path d="m512 120h-16l-88-88 40-24h64z" fill="#0f8ca8"/><path d="m272 168-56 8s0 40 24 40h32z" fill="#f9a973"/><path d="m480 224h24v24h-24z" fill="#a95a18"/><path d="m40 422v19.944a30 30 0 0 0 21.052 28.634l106.948 33.422h176l105.276-26.319a30 30 0 0 0 22.724-29.104v-26.577a30 30 0 0 0 -30-30h-372a30 30 0 0 0 -30 30z" fill="#0f8ca8"/><g opacity=".2"><path d="m256 440c-48.6 0-88 28.654-88 64h176c0-35.346-39.4-64-88-64z" fill="#232626"/></g><g fill="#90e3f5"><path d="m476.686 319.999h22.627v16.001h-22.627z" transform="matrix(.707 -.707 .707 .707 -88.999 441.137)"/><path d="m444.686 351.999h22.627v16.001h-22.627z" transform="matrix(.707 -.707 .707 .707 -120.999 427.882)"/><path d="m39.999 228.686h16.001v22.627h-16.001z" transform="matrix(.707 -.707 .707 .707 -155.647 104.235)"/><path d="m71.999 260.686h16.001v22.627h-16.001z" transform="matrix(.707 -.707 .707 .707 -168.902 136.235)"/><path d="m103.999 220.686h16.001v22.627h-16.001z" transform="matrix(.707 -.707 .707 .707 -131.245 147.147)"/></g><path d="m480 104-40 32v18.28a50 50 0 0 1 -36.26 48.08l-11.74 5.64v44a20.027 20.027 0 0 1 -20 20h-60a39.971 39.971 0 0 1 -40-40v-64l152-120z" fill="#ffbe92"/><path d="m312 272a39.727 39.727 0 0 1 -6.01-.45 36.631 36.631 0 0 1 -9.99-23.55v-64h16v64a20.46 20.46 0 0 0 11.58 16.84l14.56 6.87.62.29z" fill="#d67329"/><path d="m338.42 272a3.827 3.827 0 0 1 -.28-.29 36.633 36.633 0 0 1 -10.14-23.71v-64h16v64a20.46 20.46 0 0 0 11.58 16.84l14.86 7.15a.01.01 0 0 0 .01.01h-31.69" fill="#d67329"/><path d="m387.71 264.36a19.925 19.925 0 0 1 -15.71 7.64h-1.55a.01.01 0 0 1 -.01-.01 36.66 36.66 0 0 1 -10.44-23.99v-64h16v64a20.335 20.335 0 0 0 9.06 15.39z" fill="#d67329"/><path d="m216 216h-23.372a34 34 0 0 0 -26.837 13.126l-101.791 130.874-8 32h40l8-32z" fill="#fafcfc" opacity=".3"/><path d="m272 168h72l112-88-32-32z" fill="#fafcfc" opacity=".3"/></svg>