<svg id="Layer_1" height="512" viewBox="0 0 512 512" width="512" xmlns="http://www.w3.org/2000/svg" data-name="Layer 1"><path d="m489.445 397.343 5.026 38.365a60 60 0 0 1 -59.424 68.292h-358.094a60 60 0 0 1 -59.424-68.292l5.026-38.365z" fill="#076372"/><path d="m22.408 397.343-2.3 18.168a60 60 0 0 0 56.847 40.794h358.092a60 60 0 0 0 56.847-40.794l-2.3-18.168z" fill="#232626" opacity=".2"/><path d="m489.592 325.192 4.879 38.517a60 60 0 0 1 -59.424 68.291h-358.094a60 60 0 0 1 -59.424-68.292l4.879-38.517z" fill="#90e3f5"/><path d="m22.408 325.192-2.3 18.168a60 60 0 0 0 56.847 40.794h358.092a60 60 0 0 0 56.847-40.794l-2.3-18.168z" fill="#232626" opacity=".2"/><path d="m435.047 360.157h-358.094a60 60 0 0 1 -59.424-68.292l31.256-235.865c4.137-29.646 29.491-48 59.424-48h295.582c29.933 0 55.288 18.354 59.424 48l31.256 235.866a60 60 0 0 1 -59.424 68.291z" fill="#f69038"/><g fill="#fff"><circle cx="412" cy="172.157" r="20"/><path d="m480 32.157h16v16h-16z"/><path d="m88 384.157h16v16h-16z"/><path d="m144 304.157h16v16h-16z"/><path d="m80 112.157h16v16h-16z"/><path d="m126.142 210.015 25.858 14.142-25.858 14.142-14.142 25.858-14.142-25.858-25.858-14.142 25.858-14.142 14.142-25.858z"/><path d="m414.142 274.015 25.858 14.142-25.858 14.142-14.142 25.858-14.142-25.858-25.858-14.142 25.858-14.142 14.142-25.858z"/></g><path d="m192 8-64 96.157 128 48z" fill="#7a3909"/><path d="m320 8 64 96.157-128 48z" fill="#7a3909"/><path d="m248 152.157h16v208h-16z" fill="#7a3909"/><path d="m296 192.157h16v24h-16z" fill="#7a3909"/><path d="m296 264.157h16v24h-16z" fill="#7a3909"/><path d="m192 8h128l-64 144.157z" fill="#db6c19"/></svg>