<svg id="Layer_1" height="512" viewBox="0 0 512 512" width="512" xmlns="http://www.w3.org/2000/svg" data-name="Layer 1"><ellipse cx="120" cy="393.826" fill="#a95a18" rx="72" ry="48"/><path d="m168.8 391.645s-32.8 8.355-56.8-7.645c-22.2-14.8-57.13-2.582-62.255-.663a32.938 32.938 0 0 0 -1.745 10.489c0 26.51 32.235 48 72 48s72-21.49 72-48a32.47 32.47 0 0 0 -.2-3.365z" fill="#843f0c"/><ellipse cx="80" cy="456" fill="#a95a18" rx="72" ry="48"/><path d="m80 456c-24-16-72 0-72 0 0 26.51 32.235 48 72 48s72-21.49 72-48c0 0-48 16-72 0z" fill="#843f0c"/><path d="m460.76 382.806-5.312-15.093 23.172-8.155q.352-.124.715-.215a21.968 21.968 0 0 0 16.665-21.343v-92a22.025 22.025 0 0 0 -22-22h-77.962v-16h77.962a38.043 38.043 0 0 1 38 38v92a37.945 37.945 0 0 1 -28.4 36.768z" fill="#843f0c"/><path d="m212.038 200-41.969 185.884a60 60 0 0 0 4.22 42.62l37.749 75.496h205.209l39.015-73.743a60 60 0 0 0 4.141-46.251l-48.365-184.006z" fill="#90e3f5"/><path d="m460.4 384.005-14.192-54.005c-42.667 0-44.838-20-87.5-20s-42.667 20-85.335 20-43.5-20-86.166-20l-17.133 75.884a60 60 0 0 0 4.22 42.62l37.744 75.496h205.209l39.015-73.743a60 60 0 0 0 4.138-46.252z" fill="#f69038"/><path d="m228.038 136-88-128 184 24 160-24-88 128z" fill="#f69038"/><g fill="#a95a18"><path d="m256.038 67.279h16v89.443h-16z" transform="matrix(.894 -.447 .447 .894 -22.213 129.905)"/><path d="m322.754 105.243h76.575v16h-76.575z" transform="matrix(.496 -.868 .868 .496 83.587 370.524)"/><path d="m212.038 136h200v64h-200z"/></g><circle cx="32" cy="280" fill="#90e3f5" r="24"/><path d="m107.355 160.012 27.356-8.012-8.013 27.355 8.013 27.356-27.356-8.013-27.355 8.013 8.012-27.356-8.012-27.355z" fill="#fe9e4a"/><path d="m315.636 373.678 13.678-25.009 13.677 25.009 25.009 13.677-25.009 13.678-13.677 25.009-13.678-25.009-25.009-13.678z" fill="#fff"/><path d="m212.038 168h48v16h-48z" fill="#843f0c"/><path d="m204.882 427.578c-18.368-36.735.679-56.415 1.5-57.234l11.313 11.313.1-.1c-.478.517-11.564 12.948 1.4 38.87z" fill="#fff"/><path d="m268.038 200 48 56 40-56" fill="#f69038"/><path d="m386.149 440h35.777v16h-35.777z" fill="#a95a18" transform="matrix(.447 -.894 .894 .447 -177.357 609.031)"/><path d="m120 272h16v16h-16z" fill="#90e3f5"/><path d="m168 224h16v16h-16z" fill="#90e3f5"/><path d="m218.842 385.884 41.968-185.884h-48.772l-41.969 185.884a60 60 0 0 0 4.22 42.62l37.749 75.496h48.772l-37.748-75.5a60 60 0 0 1 -4.22-42.616z" fill="#fafcfc" opacity=".3"/><path d="m140.038 8 88 128h83.962l6.545-104.716z" fill="#fafcfc" opacity=".3"/></svg>