<svg id="Layer_1" height="512" viewBox="0 0 512 512" width="512" xmlns="http://www.w3.org/2000/svg" data-name="Layer 1"><path d="m269.206 193.926-53.206-45.605v-21.121a40 40 0 1 0 -48-39.2h16a24 24 0 1 1 24 24 8 8 0 0 0 -8 8v28.321l-53.206 45.605a8 8 0 0 0 -2.794 6.074v28h16v-24.32l48-41.143 48 41.143v24.32h16v-28a8 8 0 0 0 -2.794-6.074z" fill="#a95a18"/><path d="m208 256a56 56 0 0 0 56-56h-112a56 56 0 0 0 56 56z" fill="#087182"/><path d="m328 200h-64a56 56 0 0 1 -112 0h-64l-80 72 48 40 32-24v216h240v-216l32 24 48-40z" fill="#90e3f5"/><circle cx="400" cy="408" fill="#f69038" r="24"/><path d="m225.009 331.636 13.677-25.009 13.678 25.009 25.009 13.678-25.009 13.677-13.678 25.009-13.677-25.009-25.009-13.677z" fill="#fff"/><path d="m35.636 91.636 13.678-25.009 13.677 25.009 25.009 13.678-25.009 13.677-13.677 25.009-13.678-25.009-25.009-13.677z" fill="#90e3f5"/><path d="m112 128h16v16h-16z" fill="#f69038"/><path d="m40 352h16v16h-16z" fill="#f69038"/><path d="m408 320h16v16h-16z" fill="#90e3f5"/><path d="m168 288h16v16h-16z" fill="#fff"/><g fill="#f69038"><circle cx="416" cy="96" r="48"/><path d="m408 0h16v28.8h-16z"/><path d="m408 163.2h16v28.8h-16z"/><path d="m483.2 88h28.8v16h-28.8z"/><path d="m320 88h28.8v16h-28.8z"/><path d="m459.3 30.3h28.8v16h-28.8z" transform="matrix(.707 -.707 .707 .707 111.674 346.19)"/><path d="m343.9 145.7h28.8v16h-28.8z" transform="matrix(.707 -.707 .707 .707 -3.732 298.39)"/><path d="m465.7 139.3h16v28.8h-16z" transform="matrix(.707 -.707 .707 .707 30.058 379.969)"/><path d="m350.3 23.9h16v28.8h-16z" transform="matrix(.707 -.707 .707 .707 77.859 264.571)"/></g><path d="m120 400h16v40h-16z" fill="#fff"/><path d="m368 96q0 1.227.062 2.438 1.211.061 2.438.062a48 48 0 0 0 48-48q0-1.227-.062-2.438-1.211-.062-2.438-.062a48 48 0 0 0 -48 48z" fill="#fafcfc" opacity=".3"/><path d="m144 504v-304h-56l-80 72 48 40 32-24v216z" fill="#fafcfc" opacity=".3"/></svg>