<svg id="Layer_1" height="512" viewBox="0 0 512 512" width="512" xmlns="http://www.w3.org/2000/svg" data-name="Layer 1"><path d="m134.211 193.995h16.001v98.293h-16.001z" fill="#7a3909" transform="matrix(.851 -.525 .525 .851 -106.432 110.785)"/><path d="m504 336-32-48-112-40s-24 24 16 48v66.745a34.391 34.391 0 0 0 19.011 30.76l12.989 6.495v24l13.827 32v56h82.173z" fill="#e0935f"/><path d="m296 362.98c0 20.4-51.765 141.02-51.765 141.02h-70.529s-53.706-120.619-53.706-141.02v-90.98h176z" fill="#a95a18"/><circle cx="32" cy="336" fill="#90e3f5" r="24"/><path d="m257.009 193.009 13.677-25.009 13.678 25.009 25.009 13.677-25.009 13.678-13.678 25.009-13.677-25.009-25.009-13.678z" fill="#f69038"/><path d="m209.009 363.636 13.677-25.009 13.678 25.009 25.009 13.678-25.009 13.677-13.678 25.009-13.677-25.009-25.009-13.677z" fill="#90e3f5"/><path d="m392 32h16v16h-16z" fill="#90e3f5"/><path d="m320 424h16v16h-16z" fill="#f69038"/><path d="m200 138.224h16v133.776h-16z" fill="#7a3909"/><path d="m144 296h16v32h-16z" fill="#fff"/><path d="m416 408.02-16-.039.265-109.662-16.434-105.15 15.809-2.469 16.531 105.774a8.059 8.059 0 0 1 .1 1.255z" fill="#7a3909"/><path d="m504 512v-176l-120-48s-16 24 8 40l40 16s-16 48 16 80v88z" fill="#ffbe92"/><path d="m256 48a31.851 31.851 0 0 0 -19.577 6.7 32 32 0 1 0 -56.847 0 32 32 0 1 0 0 50.608 32 32 0 1 0 56.847 0 32 32 0 1 0 19.577-57.308z" fill="#0f8ca8"/><path d="m200 72h16v16h-16z" fill="#90e3f5"/><path d="m8 176a31.991 31.991 0 0 0 51.577 25.3 32 32 0 1 0 56.847 0 32 32 0 1 0 0-50.608 32 32 0 1 0 -56.847 0 31.991 31.991 0 0 0 -51.577 25.308z" fill="#f69038"/><path d="m80 168h16v16h-16z" fill="#90e3f5"/><path d="m405.255 97.373a31.851 31.851 0 0 0 -9.108 18.577 32 32 0 1 0 -40.2 40.2 32 32 0 1 0 35.786 35.786 32 32 0 1 0 40.2-40.2 32 32 0 1 0 -26.677-54.363z" fill="#90e3f5"/><path d="m384 144.77h16.001v16h-16.001z" fill="#087182"/><path d="m144 272h-24v90.98c0 20.4 53.706 141.02 53.706 141.02h13.094l-42.8-144z" fill="#fafcfc" opacity=".3"/></svg>