<svg id="Layer_1" height="512" viewBox="0 0 512 512" width="512" xmlns="http://www.w3.org/2000/svg" data-name="Layer 1"><path d="m108 136 7.133-19.022a20 20 0 0 1 18.727-12.978h10.389a20 20 0 0 1 19.443 15.312l4.024 16.688z" fill="#0f8ca8"/><path d="m348.284 136 7.133-19.022a20 20 0 0 1 18.727-12.978h10.389a20 20 0 0 1 19.443 15.312l4.024 16.688z" fill="#0f8ca8"/><path d="m424 200v-44a20 20 0 0 0 -20-20h-59.716a20 20 0 0 0 -14.142 5.858l-12.284 12.284a20 20 0 0 1 -14.142 5.858h-95.432a20 20 0 0 1 -14.142-5.858l-12.284-12.284a20 20 0 0 0 -14.142-5.858h-59.716a20 20 0 0 0 -20 20v44l16 136h56l42.315-69.577a20 20 0 0 1 17.558-10.423h71.767a20 20 0 0 1 17.889 11.056l42.471 76.944 56-16z" fill="#f69038"/><circle cx="324" cy="44" fill="#90e3f5" r="20"/><path d="m168 48h16v16h-16z" fill="#f69038"/><path d="m272 296h16v16h-16z" fill="#f69038"/><path d="m400 48h16v16h-16z" fill="#f69038"/><path d="m254.142 353.858 25.858 14.142-25.858 14.142-14.142 25.858-14.142-25.858-25.858-14.142 25.858-14.142 14.142-25.858z" fill="#90e3f5"/><path d="m78.142 49.858 25.858 14.142-25.858 14.142-14.142 25.858-14.142-25.858-25.858-14.142 25.858-14.142 14.142-25.858z" fill="#f69038"/><path d="m88 328 40-88v-22a10 10 0 0 1 10-10h12a10 10 0 0 1 10 10v118c0 56-56 64-56 64l8 88v24h-88.333v-112l-15.667-120 56-64 24-16 15.61 93.659" fill="#ffbe92"/><g fill="#0f8ca8"><circle cx="312" cy="208" r="16"/><circle cx="368" cy="176" r="16"/><path d="m136 160h16v48h-16z"/><path d="m120 176h48v16h-48z"/></g><path d="m264 160h-16v-76a12.013 12.013 0 0 0 -12-12 28.031 28.031 0 0 1 -28-28v-44h16v44a12.013 12.013 0 0 0 12 12 28.031 28.031 0 0 1 28 28z" fill="#02878e"/><path d="m176 309.692-16-91.692-40 78-32-96 16 136h56z" fill="#d67329"/><path d="m128 240v-22a10 10 0 0 1 10-10h12a10 10 0 0 1 10 10v118c0 56-56 64-56 64l8 88v24h-88.333v-112l-15.667-120 56-64 24-16 15.61 93.659z" fill="#ffbe92"/><path d="m384 224 40 72-24 16-24-56z" fill="#d67329"/><path d="m384 256v-30a10 10 0 0 0 -10-10h-12a10 10 0 0 0 -10 10v110c0 56 56 64 56 64l-8 88v24h88.333v-112l15.667-120-56-64-24-16-16.41 98.462z" fill="#ffbe92"/><path d="m114 120-6 16h59.716l-3.858-16z" fill="#232626" opacity=".2"/><path d="m354.284 120-6 16h59.716l-3.858-16z" fill="#232626" opacity=".2"/><path d="m26.781 258.537-18.781 21.463 15.667 120v112h24.333v-112z" fill="#fafcfc" opacity=".3"/></svg>