<svg id="Layer_1" height="512" viewBox="0 0 512 512" width="512" xmlns="http://www.w3.org/2000/svg" data-name="Layer 1"><circle cx="248" cy="144" fill="#90e3f5" r="24"/><path d="m451.636 107.636 13.678-25.009 13.677 25.009 25.009 13.678-25.009 13.677-13.677 25.009-13.678-25.009-25.009-13.677z" fill="#f69038"/><path d="m33.009 193.009 13.677-25.009 13.678 25.009 25.009 13.677-25.009 13.678-13.678 25.009-13.677-25.009-25.009-13.678z" fill="#90e3f5"/><g fill="#f69038"><path d="m64 80h16v16h-16z"/><path d="m224 8h16v16h-16z"/><path d="m416 184h16v16h-16z"/></g><path d="m152 35.757v196.243h42.667s5.95-130.98-42.667-196.243z" fill="#90e3f5"/><path d="m120 8v224h32v-196.243c-8.772-11.776-19.318-21.416-32-27.757z" fill="#0f8ca8"/><path d="m336 232v-79.286a29.708 29.708 0 0 0 -19.259-28.025c-22.412-8.154-36.741-30.455-36.741-56.689a60 60 0 0 1 120 0s-24-36-64-28c0 0-24 0-24 32 0 24 24 32 24 32s32 8 32 40v88" fill="#90e3f5"/><path d="m224 262a30 30 0 0 0 -30-30h-68a30 30 0 0 0 -30 30v58c88-12.567 128-58 128-58z" fill="#f69038"/><path d="m96 448v26a30 30 0 0 0 30 30h68a30 30 0 0 0 30-30v-84s-40 45.433-128 58z" fill="#a95a18"/><path d="m96 320v64c88-12.567 128-58 128-58v-64s-40 45.433-128 58z" fill="#a95a18"/><path d="m96 384v64c88-12.567 128-58 128-58v-64s-40 45.433-128 58z" fill="#f69038"/><path d="m416 262a30 30 0 0 0 -30-30h-68a30 30 0 0 0 -30 30v58c88-12.567 128-58 128-58z" fill="#f69038"/><path d="m288 448v26a30 30 0 0 0 30 30h68a30 30 0 0 0 30-30v-84s-40 45.433-128 58z" fill="#a95a18"/><path d="m288 384v64c88-12.567 128-58 128-58v-64s-40 45.433-128 58z" fill="#f69038"/><path d="m288 320v64c88-12.567 128-58 128-58v-64s-40 45.433-128 58z" fill="#a95a18"/><path d="m152 232h-26a30 30 0 0 0 -30 30v212a30 30 0 0 0 30 30h26z" fill="#fafcfc" opacity=".3"/><path d="m344 232h-26a30 30 0 0 0 -30 30v212a30 30 0 0 0 30 30h26z" fill="#fafcfc" opacity=".3"/></svg>