<svg id="Layer_1" height="512" viewBox="0 0 512 512" width="512" xmlns="http://www.w3.org/2000/svg" data-name="Layer 1"><path d="m32 8h256v208h-256z" fill="#90e3f5"/><path d="m8 248h309.603v112h-309.603z" fill="#0f8ca8"/><path d="m408 232-64 .264a30 30 0 0 0 -30 30v65.736h198v-95.966l-32-.034" fill="#f69038"/><path d="m512 327.941-324 .059 20 176h304z" fill="#7a3909"/><path d="m336 88.264s-8-48 48-48 48-.264 48-.264 48 0 48 64.264v184h-72v-104z" fill="#076372"/><path d="m336 88.264h42a30 30 0 0 1 30 30v66a0 0 0 0 1 0 0h-37.547a34.453 34.453 0 0 1 -34.453-34.453v-61.547a0 0 0 0 1 0 0z" fill="#f9ac78"/><circle cx="228" cy="124" fill="#fff" r="20"/><path d="m320 16h16v16h-16z" fill="#90e3f5"/><path d="m72 392h16v16h-16z" fill="#90e3f5"/><path d="m360 112h16v16h-16z" fill="#053c42"/><g fill="#076372"><path d="m72 280h32v16h-32z"/><path d="m160 280h32v16h-32z"/><path d="m248 280h32v16h-32z"/></g><path d="m56 216h16v32h-16z" fill="#02878e"/><path d="m240 216h16v32h-16z" fill="#02878e"/><path d="m188 328h-16a20 20 0 0 0 -20 20v100h-68a20 20 0 0 0 -20 20v36h144v-156a20 20 0 0 0 -20-20z" fill="#f69038"/><g opacity=".2"><path d="m352 272h16v56h-16z" fill="#232626"/></g><path d="m32 176h256v40h-256z" fill="#02878e"/><path d="m240 176h48v-168h-246.719z" fill="#fafcfc" opacity=".3"/><path d="m134.142 73.858 25.858 14.142-25.858 14.142-14.142 25.858-14.142-25.858-25.858-14.142 25.858-14.142 14.142-25.858z" fill="#f69038"/></svg>