<svg id="Layer_1" height="512" viewBox="0 0 512 512" width="512" xmlns="http://www.w3.org/2000/svg" data-name="Layer 1"><path d="m80 176c16.051 89.159 21.307 151.688 8 264q-3.9 32.928-9.657 64h-45.657q-5.7-31.062-9.657-64c-13.307-112.312-6.394-174.841 9.657-264z" fill="#90e3f5"/><path d="m395.673 306.145c.987-50.118 42.562-90.52 92.688-90.143q.453 0 .9.011a14.353 14.353 0 0 0 13.169-20.776 196.02 196.02 0 0 0 -370.781 88.668c-.049 108.295 87.727 196.095 196.006 196.095a195.4 195.4 0 0 0 140.837-59.7c7.521-7.771 4.275-20.852-6.125-23.819a92.033 92.033 0 0 1 -66.694-90.336z" fill="#f69038"/><path d="m104 88a48 48 0 0 1 -96 0s.167-72 72-80c0 0-8 24 8 40s16 40 16 40z" fill="#02878e"/><g fill="#90e3f5"><circle cx="376" cy="168" r="24"/><circle cx="272" cy="176" r="24"/><circle cx="208" cy="248" r="24"/><circle cx="224" cy="336" r="24"/><circle cx="288" cy="400" r="24"/><circle cx="376" cy="416" r="24"/></g><circle cx="328" cy="272" fill="#0f8ca8" r="40"/><path d="m50.282 141.595c-12.882-13.169-18.638-26.489-17.101-39.595 2.137-18.221 17.882-28.348 18.551-28.77l8.578 13.51c-.1.065-10.078 6.653-11.252 17.248-.891 8.033 3.369 16.921 12.66 26.417z" fill="#fcfbfa"/><path d="m80 129.563v46.437h-48v-46.438" fill="#f69038"/><path d="m40.108 345.315c-8.179-49.077-.213-81.883.131-83.256l15.521 3.881-7.76-1.94 7.765 1.927c-.075.307-7.466 31.2.127 76.758z" fill="#fcfbfa"/><circle cx="144" cy="464" fill="#90e3f5" r="24"/><path d="m163.636 49.009 13.678-25.009 13.677 25.009 25.009 13.677-25.009 13.678-13.677 25.009-13.678-25.009-25.009-13.678z" fill="#fe9e4a"/><path d="m280 40h16v16h-16z" fill="#90e3f5"/><path d="m48 376h16v16h-16z" fill="#fcfbfa"/><path d="m53.392 176h-20.706c-16.051 89.159-22.964 151.688-9.658 264q3.9 32.928 9.657 64h20.707q-5.7-31.062-9.657-64c-13.307-112.312-6.394-174.841 9.657-264z" fill="#fafcfc" opacity=".3"/><g opacity=".3"><path d="m500.99 192.44a196.023 196.023 0 0 0 -302.32 239.13 196.009 196.009 0 1 1 302.32-239.13z" fill="#fafcfc"/></g></svg>