<svg id="Layer_1" height="512" viewBox="0 0 512 512" width="512" xmlns="http://www.w3.org/2000/svg" data-name="Layer 1"><path d="m431.213 104.787a30.646 30.646 0 0 0 -21.213-8.787c-65.048-44.912-130.379-48-154-48-79.046 0-134.562 34.579-154 48a30 30 0 0 0 -30 30v58h368v-58a29.906 29.906 0 0 0 -8.787-21.213z" fill="#a95a18"/><path d="m431.213 104.787a30.646 30.646 0 0 0 -21.213-8.787c-65.048-44.912-130.379-48-154-48-79.046 0-134.562 34.579-154 48a30 30 0 0 0 -30 30v58h368v-58a29.906 29.906 0 0 0 -8.787-21.213z" fill="#a95a18"/><path d="m88 208v90a30 30 0 0 0 30 30h276a30 30 0 0 0 30-30v-90l16-24h-368z" fill="#f69038"/><path d="m424 208 16-24h-368l16 24z" fill="#232626" opacity=".2"/><path d="m328 72h-16v-42.2a13.82 13.82 0 0 0 -13.8-13.8h-84.4a13.82 13.82 0 0 0 -13.8 13.8v42.2h-16v-42.2a29.838 29.838 0 0 1 29.8-29.8h84.4a29.838 29.838 0 0 1 29.8 29.8z" fill="#7a3909"/><path d="m288 376h16v16h-16z" fill="#90e3f5"/><path d="m176 224h16v16h-16z" fill="#fff"/><path d="m400 24h16v16h-16z" fill="#90e3f5"/><path d="m104 32h16v16h-16z" fill="#90e3f5"/><circle cx="464" cy="360" fill="#90e3f5" r="16"/><circle cx="144" cy="456" fill="#0f8ca8" r="48"/><path d="m136 328h16v128h-16z" fill="#7a3909"/><path d="m352 328h16v176h-16z" fill="#7a3909"/><circle cx="256" cy="112" fill="#90e3f5" r="32"/><path d="m112 240h16v40h-16z" fill="#fff"/><g fill="#7a3909"><path d="m192 448h168v16h-168z"/><path d="m31.082 136h40.918v16h-40.918z"/><path d="m440 136h48v16h-48z"/><path d="m336 496h46v16h-46z"/></g><path d="m340 61.429a273.66 273.66 0 0 0 -84-13.429c-79.046 0-134.562 34.579-154 48a30 30 0 0 0 -30 30v40.878c59.5-69.678 198.047-96.227 268-105.449z" fill="#fafcfc" opacity=".3"/><path d="m280.645 176h16v16h-16z" fill="#fff"/><path d="m331.636 244.281 13.678-25.009 13.677 25.009 25.009 13.677-25.009 13.678-13.677 25.009-13.678-25.009-25.009-13.678z" fill="#90e3f5"/><circle cx="24" cy="144" fill="#a95a18" r="16"/><circle cx="488" cy="144" fill="#a95a18" r="16"/></svg>