<svg id="Layer_1" height="512" viewBox="0 0 512 512" width="512" xmlns="http://www.w3.org/2000/svg" data-name="Layer 1"><path d="m280 220v254a30 30 0 0 1 -30 30h-132a30 30 0 0 1 -30-30v-254a20 20 0 0 1 20-20h152a20 20 0 0 1 20 20z" fill="#90e3f5"/><path d="m192 280c-40-40-104-24-104-24v218a30 30 0 0 0 30 30h132a30 30 0 0 0 30-30v-194s-48 40-88 0z" fill="#f69038"/><path d="m312 128h16v16h-16z" fill="#90e3f5"/><path d="m32 216h16v16h-16z" fill="#90e3f5"/><path d="m224 232h16v16h-16z" fill="#fff"/><path d="m112 272h16v16h-16z" fill="#fff"/><path d="m152 304h16v16h-16z" fill="#fff"/><circle cx="136" cy="32" fill="#f69038" r="16"/><circle cx="240" cy="160" fill="#f69038" r="16"/><path d="m259.636 51.636 13.678-25.009 13.677 25.009 25.009 13.678-25.009 13.677-13.677 25.009-13.678-25.009-25.009-13.677z" fill="#90e3f5"/><path d="m67.636 115.636 13.678-25.009 13.677 25.009 25.009 13.678-25.009 13.677-13.677 25.009-13.678-25.009-25.009-13.677z" fill="#90e3f5"/><path d="m88 408h-56v-112h56v-24h-64a16 16 0 0 0 -16 16v128a16 16 0 0 0 16 16h64z" fill="#90e3f5"/><path d="m128 336h16v128h-16z" fill="#7a3909"/><path d="m176 336h16v128h-16z" fill="#7a3909"/><path d="m224 336h16v128h-16z" fill="#7a3909"/><path d="m440 79.482v-47.482h-48v47.482a100 100 0 0 1 -19.126 58.818l-29.574 40.661a80 80 0 0 0 -15.3 47.054v247.985a30 30 0 0 0 30 30h116a30 30 0 0 0 30-30v-247.985a80 80 0 0 0 -15.3-47.054l-29.574-40.661a100 100 0 0 1 -19.126-58.818z" fill="#f69038"/><g fill="#7a3909"><path d="m384 8h64v24h-64z"/><path d="m328 256h120v112h-120z"/><path d="m368 480h16v24h-16z"/><path d="m408 480h16v24h-16z"/><path d="m448 480h16v24h-16z"/></g><path d="m396 192a20.023 20.023 0 0 1 -20-20v-12h16v12a4 4 0 0 0 8 0v-12h16v12a20.023 20.023 0 0 1 -20 20z" fill="#90e3f5"/><path d="m380 448a20.023 20.023 0 0 1 -20-20v-12h16v12a4 4 0 0 0 8 0v-12h16v12a20.023 20.023 0 0 1 -20 20z" fill="#90e3f5"/><path d="m460 432a20.023 20.023 0 0 1 -20-20v-12h16v12a4 4 0 0 0 8 0v-12h16v12a20.023 20.023 0 0 1 -20 20z" fill="#90e3f5"/><path d="m452 232a20.023 20.023 0 0 1 -20-20v-12h16v12a4 4 0 0 0 8 0v-12h16v12a20.023 20.023 0 0 1 -20 20z" fill="#90e3f5"/><path d="m360 474v-247.985a80 80 0 0 1 15.3-47.054l29.574-40.661a100 100 0 0 0 19.126-58.818v-47.482h-32v47.482a100 100 0 0 1 -19.126 58.818l-29.574 40.661a80 80 0 0 0 -15.3 47.054v247.985a30 30 0 0 0 30 30h32a30 30 0 0 1 -30-30z" fill="#fafcfc" opacity=".3"/><path d="m112 200h-4a20 20 0 0 0 -20 20v254a30.009 30.009 0 0 0 24 29.4z" fill="#fafcfc" opacity=".3"/><path d="m280 245.726v-25.726a20 20 0 0 0 -20-20h-152a20 20 0 0 0 -20 20v6.47c51.63-23.27 88-2.47 88-2.47 53.708 24.413 86.555 24.986 104 21.726z" fill="#fafcfc" opacity=".3"/></svg>