<svg id="Layer_1" height="512" viewBox="0 0 512 512" width="512" xmlns="http://www.w3.org/2000/svg" data-name="Layer 1"><path d="m56 264h-48v-192h496v192h-48" fill="#90e3f5"/><path d="m8 72v-64h496v64" fill="#f69038"/><path d="m241.009 401.009 14.991-25.009 12.364 25.009 27.636 14.991-27.636 12.364-12.364 27.636-14.991-27.636-25.009-12.364z" fill="#90e3f5"/><path d="m208 216h16v16h-16z" fill="#f69038"/><path d="m304 456h16v16h-16z" fill="#f69038"/><path d="m40 448h120v56h-120z" fill="#0f8ca8"/><path d="m352 448h120v56h-120z" fill="#0f8ca8" transform="matrix(-1 0 0 -1 824 952)"/><g fill="#087182"><path d="m56 72h48v88h-48z"/><path d="m144 72h48v88h-48z"/><path d="m232 72h48v88h-48z"/><path d="m320 72h48v88h-48z"/><path d="m408 72h48v88h-48z"/><path d="m72 160h16v104h-16z"/><path d="m160 160h16v104h-16z"/><path d="m248 160h16v104h-16z"/><path d="m336 160h16v104h-16z"/><path d="m424 160h16v104h-16z"/></g><path d="m56 32h72v16h-72z" fill="#90e3f5"/><path d="m168 32h32v16h-32z" fill="#90e3f5"/><path d="m344 32h32v16h-32z" fill="#90e3f5"/><path d="m416 32h32v16h-32z" fill="#90e3f5"/><path d="m8 364.848v-66.848a10 10 0 0 1 10-10h4a10 10 0 0 1 10 10v28a10 10 0 0 0 10 10h4a10 10 0 0 0 10-10v-68a10 10 0 0 1 10-10h4a10 10 0 0 1 10 10v52a10 10 0 0 0 10 10h4a10 10 0 0 0 10-10v-68a10 10 0 0 1 10-10h4a10 10 0 0 1 10 10v68a10 10 0 0 0 10 10h4a10 10 0 0 0 10-10v-52a10 10 0 0 1 10-10h4a10 10 0 0 1 10 10v74.38a10 10 0 0 0 17.682 6.4l15.308-18.369a10 10 0 0 1 14.753-.669l9.709 9.709a10 10 0 0 1 .521 13.579l-86.98 101.477a10 10 0 0 1 -7.593 3.493h-70.193a10 10 0 0 1 -8.192-4.265l-51.207-73.153a10 10 0 0 1 -1.808-5.734z" fill="#ffbe92"/><path d="m504 364.848v-66.848a10 10 0 0 0 -10-10h-4a10 10 0 0 0 -10 10v28a10 10 0 0 1 -10 10h-4a10 10 0 0 1 -10-10v-68a10 10 0 0 0 -10-10h-4a10 10 0 0 0 -10 10v52a10 10 0 0 1 -10 10h-4a10 10 0 0 1 -10-10v-68a10 10 0 0 0 -10-10h-4a10 10 0 0 0 -10 10v68a10 10 0 0 1 -10 10h-4a10 10 0 0 1 -10-10v-52a10 10 0 0 0 -10-10h-4a10 10 0 0 0 -10 10v74.38a10 10 0 0 1 -17.682 6.4l-15.308-18.368a10 10 0 0 0 -14.753-.669l-9.709 9.709a10 10 0 0 0 -.521 13.579l86.98 101.477a10 10 0 0 0 7.593 3.492h70.194a10 10 0 0 0 8.192-4.265l51.207-73.152a10 10 0 0 0 1.807-5.735z" fill="#ffbe92"/><path d="m40 448h32v56h-32z" fill="#087182"/><path d="m352 448h32v56h-32z" fill="#087182"/><path d="m8 72h496v24h-496z" fill="#232626" opacity=".2"/><path d="m376 319.8a10.032 10.032 0 0 1 -2 .2h-4a10 10 0 0 1 -10-10v-52a10 10 0 0 0 -10-10h-4a10 10 0 0 0 -10 10v74.379a10 10 0 0 1 -17.682 6.4l-15.308-18.367a10 10 0 0 0 -14.753-.669l-9.709 9.709a10 10 0 0 0 -.521 13.579l86.98 101.477a10 10 0 0 0 7.593 3.492h19.4l-16-56z" fill="#fafcfc" opacity=".3"/><path d="m146.993 444.508 86.98-101.477a10 10 0 0 0 -.521-13.579l-9.709-9.709a10 10 0 0 0 -14.753.669l-15.308 18.369a10 10 0 0 1 -17.682-6.4v-74.381a10 10 0 0 0 -10-10h-4a10 10 0 0 0 -10 10v52a10 10 0 0 1 -10 10h-4a10.032 10.032 0 0 1 -2-.2v72.2l-16 56h19.4a10 10 0 0 0 7.593-3.492z" fill="#fafcfc" opacity=".3"/></svg>