<svg id="Layer_1" height="512" viewBox="0 0 512 512" width="512" xmlns="http://www.w3.org/2000/svg" data-name="Layer 1"><path d="m176 184h16v232h-16z" fill="#a95a18"/><path d="m188.975 374.265-9.95-12.53 72-56 9.95 12.53z" fill="#a95a18"/><path d="m179.025 382.265-64-51.394 9.95-12.531 64 51.395z" fill="#a95a18"/><path d="m24 504s72-80 152-88 216 88 216 88" fill="#fe9e4a"/><path d="m398.062 454.24-37.433 23.548a10.675 10.675 0 0 1 -16.629-5.788l-5.548-39.633a69.672 69.672 0 0 1 2.452-44l17.975-45.343 81.806 32.43-19.17 48.357a69.672 69.672 0 0 1 -23.453 30.429z" fill="#90e3f5"/><path d="m429.902 184.816h40v96h-40z" fill="#fe9e4a" transform="matrix(.93 .369 -.369 .93 117.464 -149.415)"/><path d="m403.997 274.34h24v88h-24z" fill="#7bdeef" transform="matrix(.93 .369 -.369 .93 146.596 -130.9)"/><path d="m216 468h-16a12 12 0 0 0 -24 0h-16a28 28 0 0 1 56 0z" fill="#f97d21"/><path d="m288 480h-16a12 12 0 0 0 -24 0h-16a28 28 0 0 1 56 0z" fill="#f97d21"/><path d="m152 480h-16a12 12 0 0 0 -24 0h-16a28 28 0 0 1 56 0z" fill="#f97d21"/><circle cx="344" cy="88" fill="#fe9e4a" r="24"/><path d="m44.645 32.012 27.355-8.012-8.012 27.355 8.012 27.356-27.355-8.013-27.356 8.013 8.013-27.356-8.013-27.355z" fill="#90e3f5"/><path d="m264 368h16v16h-16z" fill="#90e3f5"/><path d="m0 496h512v16h-512z" fill="#a95a18"/><path d="m248 120.552c0 53.019-64 79.448-64 79.448s-64-26.429-64-79.448 64-112.552 64-112.552 64 59.532 64 112.552z" fill="#02878e"/><path d="m328.246 297.177c-29.273 44.206-97.226 30.906-97.226 30.906s-38.769-57.371-9.5-101.577 115.507-58.506 115.507-58.506 20.492 84.972-8.781 129.177z" fill="#02878e"/><path d="m39.754 305.177c29.273 44.206 97.226 30.906 97.226 30.906s38.769-57.371 9.5-101.577-115.507-58.506-115.507-58.506-20.492 84.972 8.781 129.177z" fill="#02878e"/><g fill="#90e3f5"><path d="m184 152a7.986 7.986 0 0 1 -4.8-1.6l-32-24 9.6-12.8 27.2 20.4 27.2-20.4 9.6 12.8-32 24a7.986 7.986 0 0 1 -4.8 1.6z"/><path d="m184 112a7.989 7.989 0 0 1 -4.438-1.344l-24-16 8.875-13.312 19.563 13.041 19.562-13.042 8.875 13.313-24 16a7.989 7.989 0 0 1 -4.437 1.344z"/><path d="m298.963 288-40-.247a8 8 0 0 1 -7.645-5.808l-10.962-38.468 15.388-4.385 9.318 32.7 34 .21z"/><path d="m311.507 257.665-28.79-1.778a8 8 0 0 1 -7.067-5.369l-9.432-27.259 15.12-5.232 7.688 22.219 23.466 1.449z"/><path d="m69.087 296-.1-16 34-.21 9.318-32.7 15.388 4.385-10.963 38.468a8 8 0 0 1 -7.645 5.808z"/><path d="m56.544 265.665-.986-15.97 23.466-1.449 7.688-22.218 15.12 5.231-9.432 27.259a8 8 0 0 1 -7.067 5.369z"/></g><path d="m39.754 305.177c29.273 44.206 97.226 30.906 97.226 30.906l-106.006-160.083s-20.493 84.972 8.78 129.177z" fill="#232626" opacity=".2"/><path d="m248 120.552c0-53.02-64-112.552-64-112.552v192s64-26.429 64-79.448z" fill="#232626" opacity=".2"/><path d="m328.246 297.177c29.273-44.205 8.78-129.177 8.78-129.177l-106.006 160.083s67.953 13.3 97.226-30.906z" fill="#232626" opacity=".2"/></svg>