<svg id="Layer_1" height="512" viewBox="0 0 512 512" width="512" xmlns="http://www.w3.org/2000/svg" data-name="Layer 1"><path d="m200 208h40v40h-40z" fill="#ea9f6c"/><path d="m288 400h112v-200h-112z" fill="#0f8ca8"/><path d="m40 94-32 10v24l32.634 8.158z" fill="#f69038"/><path d="m288 200h72v200h-72z" fill="#087182"/><path d="m224 200v48h64v-49.198h-64" fill="#f69038"/><path d="m256 440h-20a20 20 0 0 0 -20 20v24a20 20 0 0 0 20 20h144a20 20 0 0 0 20-20v-84h-136z" fill="#90e3f5"/><path d="m404 212 20-20h34a30 30 0 0 0 30-30v-124a30 30 0 0 0 -30-30h-18l-24 24h-96l-16-24h-26a30 30 0 0 0 -30 30v162h53.333" fill="#90e3f5"/><path d="m70 64h82a0 0 0 0 1 0 0v96a0 0 0 0 1 0 0h-82a30 30 0 0 1 -30-30v-36a30 30 0 0 1 30-30z" fill="#90e3f5"/><circle cx="184" cy="336" fill="#f69038" r="24"/><path d="m67.636 259.636 13.678-25.009 13.677 25.009 25.009 13.678-25.009 13.677-13.677 25.009-13.678-25.009-25.009-13.677z" fill="#90e3f5"/><path d="m80 16h16v16h-16z" fill="#90e3f5"/><path d="m96 352h16v16h-16z" fill="#90e3f5"/><path d="m8 208h16v16h-16z" fill="#90e3f5"/><path d="m344 400h-80l-8 40h88z" fill="#0f8ca8"/><g fill="#ffbe92"><rect height="86.163" rx="21.541" transform="matrix(.371 -.928 .928 .371 -65.626 458.161)" width="43.081" x="284.006" y="234.465"/><path d="m256 321.216v8.9a17.306 17.306 0 0 0 13.861 16.961c16.541 3.367 44.753 8.148 66.988 6.991a16.044 16.044 0 0 0 15.151-16.06v-4.108a16.066 16.066 0 0 0 -13.528-15.873c-14.738-2.347-39.016-6.787-59.989-13.32a17.31 17.31 0 0 0 -22.483 16.509z"/><path d="m264 371.512a12.488 12.488 0 0 0 12.488 12.488h47.373a12.488 12.488 0 0 0 12.483-12.134l.11-3.869a12.488 12.488 0 0 0 -13.5-12.8l-47.483 3.869a12.488 12.488 0 0 0 -11.471 12.446z"/><path d="m512 240h-64l-88-56-88 24s16 32 48 24l32-8 40 40s-8 40 8 64v80s32-8 48-40h64z"/><ellipse cx="200" cy="236" rx="24" ry="28"/></g><path d="m392 64h32v16h-32z" fill="#02878e"/><path d="m392 96h32v16h-32z" fill="#02878e"/><path d="m392 128h32v16h-32z" fill="#02878e"/><path d="m248 200h-66a30 30 0 0 1 -30-30v-108a30 30 0 0 1 30-30h66.6" fill="#0f8ca8"/><path d="m152 88h96v16h-96z" fill="#02878e"/><path d="m152 120h96v16h-96z" fill="#02878e"/><path d="m152 152h96v16h-96z" fill="#02878e"/><path d="m40 88h56v16h-56z" fill="#02878e"/><path d="m40 120h56v16h-56z" fill="#02878e"/><path d="m276 140h40v24h-40z" fill="#f69038"/><path d="m344 8h48v24h-48z" fill="#f69038"/><path d="m40.6 88h111.4v-24h-82a30.009 30.009 0 0 0 -29.4 24z" fill="#fafcfc" opacity=".3"/><path d="m248 72v-16h-95.4a30.135 30.135 0 0 0 -.6 6v10z" fill="#02878e"/><path d="m458 8h-18l-24 24h-96l-16-24h-26a30.009 30.009 0 0 0 -29.4 24h-66.6a30.009 30.009 0 0 0 -29.4 24h335.4v-18a30 30 0 0 0 -30-30z" fill="#fafcfc" opacity=".3"/><path d="m424 355.15v40.89a77.871 77.871 0 0 1 -24 11.96v-80s11.75 19.52 24 27.15z" fill="#ea9f6c"/></svg>