<svg id="Layer_1" height="512" viewBox="0 0 512 512" width="512" xmlns="http://www.w3.org/2000/svg" data-name="Layer 1"><path d="m383.5 373.44s-7.5 74.56 40.5 90.56v48h80v-216l-56-112z" fill="#f4a56e"/><path d="m87.5 512v-48c48-16 40.741-89.073 40.741-89.073l-64.241-190.927-56.5 112v216z" fill="#f4a56e"/><path d="m424 104 24-8v278.927l-34.655.572s-66.189-14.8-121.6 29.4a10 10 0 0 0 -3.745 7.816v11.285h-48v-10.2a10.007 10.007 0 0 0 -5.239-8.8c-16.821-9.14-70.075-35.858-136.572-29.208l-34.189-.865v-278.927l24 8 176 68.858z" fill="#087182"/><path d="m88 229.655v-149.655c20.411-.729 64.19.377 96 8a297.851 297.851 0 0 1 80 32v264a297.843 297.843 0 0 0 -80-32c-31.81-7.623-75.589-8.729-96-8v-54.91" fill="#90e3f5"/><path d="m424 289.557v54.443a214.375 214.375 0 0 0 -64 0 218.3 218.3 0 0 0 -96 40v-264a218.3 218.3 0 0 1 96-40 214.359 214.359 0 0 1 64 0v150.067" fill="#77d8e8"/><path d="m120 32h16v16h-16z" fill="#f69038"/><path d="m376 168h16v16h-16z" fill="#0f8ca8"/><path d="m424 32h16v16h-16z" fill="#90e3f5"/><path d="m0 189.694h16v16h-16z" fill="#90e3f5"/><path d="m232 464h16v16h-16z" fill="#f69038"/><circle cx="180" cy="436" fill="#f69038" r="20"/><circle cx="52" cy="44" fill="#90e3f5" r="20"/><path d="m278.142 33.858 25.858 14.142-25.858 14.142-14.142 25.858-14.142-25.858-25.858-14.142 25.858-14.142 14.142-25.858z" fill="#f69038"/><path d="m358.142 449.858 25.858 14.142-25.858 14.142-14.142 25.858-14.142-25.858-25.858-14.142 25.858-14.142 14.142-25.858z" fill="#90e3f5"/><g fill="#0f8ca8"><path d="m228.031 174.946c-53-30.289-106.37-23.1-106.9-23.026l-2.264-15.84c2.4-.341 59.382-8.009 117.1 24.974z"/><path d="m228.031 214.946c-53-30.289-106.37-23.1-106.9-23.026l-2.264-15.84c2.4-.341 59.382-8.009 117.1 24.974z"/><path d="m291.969 334.946-7.937-13.893c57.718-32.982 114.7-25.314 117.1-24.974l-2.252 15.841c-.534-.071-54.129-7.133-106.911 23.026z"/><path d="m291.969 167.835-7.937-13.893c57.718-32.982 114.7-25.315 117.1-24.974l-2.252 15.842c-.534-.072-54.129-7.135-106.911 23.025z"/></g><path d="m120.142 109.555c20.411-.729 64.19.377 96 8a297.1 297.1 0 0 1 47.858 15.877v-13.432a297.851 297.851 0 0 0 -80-32c-31.81-7.623-75.589-8.729-96-8v264c7.9-.282 19.3-.287 32.142.251z" fill="#fafcfc" opacity=".3"/><path d="m396.365 208s-25.834 45.1-1.834 69.1l61.39 61.879 10.746-42.979z" fill="#232626" opacity=".2"/><path d="m115.955 208s25.834 45.1 1.834 69.1l-61.389 61.879-10.746-42.979z" fill="#232626" opacity=".2"/><path d="m504 512v-216l-106.776-88a63.547 63.547 0 0 0 8 64l42.776 40v24s-48 0-32 80l8 48v48s82.014-2.014 80 0z" fill="#ffbe92"/><path d="m7.5 512v-216l106.776-88a63.547 63.547 0 0 1 -8 64l-42.776 40v24s48 0 32 80l-8 48v48z" fill="#ffbe92"/></svg>