<svg id="Layer_1" height="512" viewBox="0 0 512 512" width="512" xmlns="http://www.w3.org/2000/svg" data-name="Layer 1"><path d="m504 200h-496l108.124-64.875a50 50 0 0 1 25.725-7.125h228.3a50 50 0 0 1 25.725 7.125z" fill="#f69038"/><path d="m205.146 446.352-48.089-42.746a16.472 16.472 0 0 1 -.7-23.959 16.472 16.472 0 0 1 23.295 0l4.348 4.353 16-40-16.968-8.484a14.836 14.836 0 0 1 -5.71-21.5 14.836 14.836 0 0 1 17.855-5.545l26.017 10.407 105.806 40.122 41.442 153h-112.442v-16l-56-24h-28a12 12 0 0 1 -12-12 12 12 0 0 1 12-12h34.876" fill="#f4a56e"/><path d="m104 256h16v16h-16z" fill="#f69038"/><path d="m392 56h16v16h-16z" fill="#f69038"/><circle cx="68" cy="356" fill="#90e3f5" r="20"/><path d="m94.142 49.858 25.858 14.142-25.858 14.142-14.142 25.858-14.142-25.858-25.858-14.142 25.858-14.142 14.142-25.858z" fill="#90e3f5"/><path d="m406.142 265.858 25.858 14.142-25.858 14.142-14.142 25.858-14.142-25.858-25.858-14.142 25.858-14.142 14.142-25.858z" fill="#f69038"/><path d="m205.849 128h-64a50 50 0 0 0 -25.725 7.125l-108.124 64.875h104l68.124-64.875a50 50 0 0 1 25.725-7.125z" fill="#fafcfc" opacity=".3"/><path d="m216 80h80a40 40 0 0 1 40 40v8a0 0 0 0 1 0 0h-160a0 0 0 0 1 0 0v-8a40 40 0 0 1 40-40z" fill="#0f8ca8"/><path d="m248 0h16v80h-16z" fill="#7a3909"/><path d="m342.916 404.023a45.458 45.458 0 0 0 1.084-12.023 79.848 79.848 0 0 0 -30.1-62.532 15.611 15.611 0 0 1 -3.585-4.126c-14.315-23.635-14.315-53.342-14.315-53.342h-64s0 29.66-14.277 53.286a15.98 15.98 0 0 1 -3.671 4.224 80 80 0 0 0 49.948 142.49c18.01 0 31.715-3.866 45.086-13.909" fill="#90e3f5"/><path d="m232 224h64v48h-64z" fill="#0f8ca8"/><path d="m232 240h64v16h-64z" fill="#90e3f5"/><path d="m235.563 438.656c-27.25-18.166-27.563-45.502-27.563-46.656h8l8-.059c.013.815.529 20.13 20.438 33.4z" fill="#fff"/><path d="m240 80h-24a40 40 0 0 0 -40 40v8h24v-8a40 40 0 0 1 40-40z" fill="#fafcfc" opacity=".3"/><path d="m208 392a79.846 79.846 0 0 1 30.052-62.49 15.987 15.987 0 0 0 3.671-4.224c14.277-23.626 14.277-53.286 14.277-53.286v-48h-24v48s0 29.66-14.277 53.286a15.987 15.987 0 0 1 -3.671 4.224 80 80 0 0 0 49.948 142.49 99.39 99.39 0 0 0 12.91-.783 80 80 0 0 1 -68.91-79.217z" fill="#fafcfc" opacity=".3"/><path d="m256 336s-24 32 0 56l64 56 8-32z" fill="#232626" opacity=".2"/><path d="m368.442 512v-88l-112.442-88s-8 40 16 56l48 40s-16 24-16 64v16z" fill="#ffbe92"/></svg>