<svg id="Layer_1" height="512" viewBox="0 0 512 512" width="512" xmlns="http://www.w3.org/2000/svg" data-name="Layer 1"><path d="m400 88h56l48 88-.682 336h-79.318l-.675-144.685-47.481-70.877z" fill="#f4a56e"/><path d="m33.009 93.489 13.677-25.009 13.678 25.009 25.009 13.677-25.009 13.678-13.678 25.009-13.677-25.009-25.009-13.678z" fill="#69d1e2"/><path d="m112 416v-378a30 30 0 0 1 30-30h228a30 30 0 0 1 30 30v348a30 30 0 0 1 -30 30z" fill="#90e3f5"/><path d="m424 512v-112s-24-24-24-64 24-64 24-64l-24-80s0-72 32-80l32 112 16 24 23.8 25.314v238.686z" fill="#ffbe92"/><g fill="#f69038"><path d="m296 248h-96v-16h89.288l22.834-129.391a8 8 0 0 1 6.309-6.454l40-8 3.139 15.689-34.641 6.928-23.051 130.619a8 8 0 0 1 -7.878 6.609z"/><circle cx="216" cy="280" r="16"/><circle cx="288" cy="280" r="16"/><path d="m184 136 24 72h93.647l12.706-72zm40.239 49.94-8-32 15.521-3.881 8 32zm39.761-1.94h-16v-32h16zm23.761 1.94-15.521-3.881 8-32 15.521 3.881z"/><path d="m144 32h16v16h-16z"/><path d="m168 32h16v16h-16z"/><path d="m448 32h16v16h-16z"/><path d="m56 200h16v16h-16z"/></g><path d="m280 448h16v16h-16z" fill="#69d1e2"/><circle cx="264" cy="72" fill="#fff" r="24"/><path d="m313.009 337.009 13.677-25.009 13.678 25.009 25.009 13.677-25.009 13.678-13.678 25.009-13.677-25.009-25.009-13.678z" fill="#fff"/><path d="m370 8h-220.743l250.559 381.3a30.284 30.284 0 0 0 .184-3.3v-348a30 30 0 0 0 -30-30z" fill="#fafcfc" opacity=".3"/><path d="m169.979 212s13.761 20.649 0 48.5l-17.979 40.3-21.538-4.8z" fill="#232626" opacity=".2"/><path d="m168 363.893v-59.893l-37.808-7.562-52.111 63.992 41.919 55.57z" fill="#f4a56e"/><path d="m128 336h16v62.631h-16z" fill="#a95a18"/><path d="m8 512v-144l152-176s24 24 0 56l-64 104 32 40s56-56 104-32l-88 88s3 32-48 48v16" fill="#ffbe92"/></svg>