<svg id="Layer_1" height="512" viewBox="0 0 512 512" width="512" xmlns="http://www.w3.org/2000/svg" data-name="Layer 1"><path d="m288 208h-96l-32 8v-208l32 8h192l32-8v208l-32-8h-24" fill="#90e3f5"/><path d="m160 176v40l32-8h192l32 8v-40z" fill="#232626" opacity=".1"/><g fill="#90e3f5"><path d="m40 512v-322a30 30 0 0 1 30-30h36a30 30 0 0 1 30 30v322"/><path d="m80 160-16-32h48l-16 32z"/><path d="m168 512v-80h288v80"/></g><path d="m384 360v72h-128v-24l-24-24v-152h152v112" fill="#f69038"/><path d="m216 88s-8-48 48-48h40s56 0 56 64v192c0 14.06-2.415 21.585 7.527 31.527l32.473 32.473h-67.546a44.454 44.454 0 0 1 -44.454-44.454v-131.546" fill="#076372"/><circle cx="480" cy="197" fill="#90e3f5" r="24"/><path d="m57.009 51.636 13.677-25.009 13.678 25.009 25.009 13.678-25.009 13.677-13.678 25.009-13.677-25.009-25.009-13.677z" fill="#f69038"/><path d="m376 40h16v16h-16z" fill="#fff"/><path d="m96 240h16v16h-16z" fill="#fff"/><path d="m200 456h16v16h-16z" fill="#fff"/><path d="m216 88h42a30 30 0 0 1 30 30v66a0 0 0 0 1 0 0h-37.547a34.453 34.453 0 0 1 -34.453-34.453v-61.547a0 0 0 0 1 0 0z" fill="#f9ac78"/><path d="m264 232s0 56-24 64v60.3a43.7 43.7 0 0 1 -43.7 43.7h-132.016a20 20 0 0 1 -14.142-5.858l-18.142-18.142h-4a20 20 0 0 1 -20-20v-12h32l16 16h116a20 20 0 0 0 20-20v-78a30 30 0 0 1 30-30z" fill="#f9ac78"/><path d="m384 232h10a30 30 0 0 1 30 30v118a20 20 0 0 1 -20 20h-20z" fill="#f9ac78"/><path d="m240 104h16v16h-16z" fill="#076372"/><path d="m478.142 353.858 25.858 14.142-25.858 14.142-14.142 25.858-14.142-25.858-25.858-14.142 25.858-14.142 14.142-25.858z" fill="#90e3f5"/><path d="m96 288h16v72h-16z" fill="#fff"/><path d="m96 400h16v32h-16z" fill="#fff"/><path d="m75.077 150.154 4.923 9.846h16l7.273-14.545z" fill="#5fcee0"/><path d="m392 432h64v80h-64z" fill="#232626" opacity=".1"/></svg>