<svg id="Layer_1" height="512" viewBox="0 0 512 512" width="512" xmlns="http://www.w3.org/2000/svg" data-name="Layer 1"><path d="m440 216-40.877 246.448a50 50 0 0 1 -49.281 41.552h-194.477a50 50 0 0 1 -49.5-42.929l-33.865-245.071" fill="#90e3f5"/><path d="m488 56c-35.365-3.8-72.753-6.6-112-8a1580.453 1580.453 0 0 0 -224.661 8c-9.63-28.8-35.495-48-63.339-48-35.346 0-64 25.072-64 56s28.654 56 64 56c28.99 0 53.465-16.871 61.334-40a1594.574 1594.574 0 0 0 226.666 8c39.225-1.413 76.612-4.214 112-8z" fill="#90e3f5"/><path d="m203.286 325.518c24.994-24.994 66.108-24.4 84.853-5.657s19.337 59.859-5.657 84.853-66.108 24.4-84.853 5.657-19.337-59.859 5.657-84.853z" fill="#fe9e4a"/><path d="m297.068 333.309 36.326-36.075a16 16 0 1 0 0-22.627 16 16 0 1 0 -22.627 0l-36.127 36.3" fill="#f69038"/><path d="m168 320-56-32 56-32z" fill="#02878e"/><path d="m336 408-32 40 32 24 32-40z" fill="#02878e"/><g fill="#f69038"><circle cx="156" cy="444" r="20"/><circle cx="236" cy="260" r="20"/><circle cx="364" cy="364" r="20"/></g><path d="m8 192h496v24h-496z" fill="#0f8ca8"/><path d="m124 343.716h16.001v56.569h-16.001z" fill="#fcfbfa" transform="matrix(.99 -.141 .141 .99 -51.282 22.406)"/><path d="m212.686 352h22.627v16h-22.627z" fill="#fff" transform="matrix(.707 -.707 .707 .707 -188.955 263.851)"/><path d="m84.215 96.007c-13.485 0-22.915-7.817-25.705-10.446l10.98-11.638c1.283 1.21 8.168 7.188 17.406 5.9a20.826 20.826 0 0 0 11.5-5.786l11.204 11.415a36.96 36.96 0 0 1 -20.5 10.214 35.4 35.4 0 0 1 -4.885.341z" fill="#fcfbfa"/><path d="m310.991 115.636 25.009 13.678-25.009 13.677-13.677 25.009-13.678-25.009-25.009-13.677 25.009-13.678 13.678-25.009z" fill="#fe9e4a"/><path d="m176 136h16v16h-16z" fill="#fe9e4a"/><path d="m456 328h16v16h-16z" fill="#90e3f5"/><path d="m32 296h16v16h-16z" fill="#fe9e4a"/><path d="m436.019 240 3.981-24h-368l3.317 24z" fill="#232626" opacity=".2"/><path d="m75.317 240-3.317-24 33.867 245.071a50 50 0 0 0 49.498 42.929h7.658l-28.438-264z" fill="#fafcfc" opacity=".3"/></svg>