<svg id="Layer_1" height="512" viewBox="0 0 512 512" width="512" xmlns="http://www.w3.org/2000/svg" data-name="Layer 1"><path d="m208 264a56 56 0 0 1 56-56h24.415v206.386h-80.415z" fill="#f9a973"/><path d="m248 280 16 72v48l-19.667-19.667v-44.122z" fill="#ef9456"/><path d="m328 208h80 40l16 248v56h-200v-160l16-16v-128z" fill="#0f8ca8"/><path d="m408 156.645-80 7.355v44h-24c11.38 34.839 28.481 97.764 64 96 32.766-1.627 53.629-63.97 64-96h-24z" fill="#ffbe92"/><path d="m224.016 456a119.993 119.993 0 1 1 23.984-71.984" fill="#fe9e4a"/><path d="m408 320h16v40h-16z" fill="#90e3f5"/><circle cx="32" cy="232" fill="#fe9e4a" r="24"/><path d="m139.355 137.302 27.356-8.013-8.013 27.356 8.013 27.355-27.356-8.012-27.355 8.012 8.012-27.355-8.012-27.356z" fill="#90e3f5"/><path d="m40 128h16v16h-16z" fill="#90e3f5"/><path d="m88 304h16v16h-16z" fill="#f9c7a2"/><path d="m408 156.645-80 7.355v29.252c37.64 1.6 66.677-18.061 80-29.212z" fill="#ef9456"/><path d="m424 112 24-40v-29.452c0-14.662-17.338-34.548-32-34.548h-136v64l24 40" fill="#a95a18"/><path d="m304 48h120a0 0 0 0 1 0 0v68a60 60 0 0 1 -60 60 60 60 0 0 1 -60-60v-68a0 0 0 0 1 0 0z" fill="#ffbe92"/><path d="m328 80h16v16h-16z" fill="#7a3909"/><path d="m384 80h16v16h-16z" fill="#7a3909"/><path d="m206.858 293.575a120.451 120.451 0 0 0 -12.836-9.762 7.98 7.98 0 0 0 -.511.784 206.009 206.009 0 0 0 -25.341 91.418h-32.154v-111.715c-2.645-.174-5.311-.272-8-.272s-5.355.1-8 .272v111.716h-32.173a210.568 210.568 0 0 0 -24.683-90.4l-.913-1.962a120.438 120.438 0 0 0 -13.01 9.862 194.524 194.524 0 0 1 22.588 82.5h-63.525c-.174 2.645-.272 5.311-.272 8s.1 5.355.272 8h63.525a194.411 194.411 0 0 1 -22.588 82.5 120.456 120.456 0 0 0 12.886 9.78l.025-.04q.133-.211.251-.429a210.546 210.546 0 0 0 25.444-91.808h32.173v111.709c2.645.174 5.311.272 8 .272s5.355-.1 8-.271v-111.713h109.318l2.666-8c0-2.689-.1-5.355-.272-8h-63.543a190.065 190.065 0 0 1 22.673-82.441z" fill="#a95a18"/><path d="m448 208v200h-176l-42.937-42.937a9.935 9.935 0 0 0 -11.463-1.863 9.935 9.935 0 0 0 -4.076 14l18.476 30.8h-46.065a9.935 9.935 0 0 0 -9.935 9.935v28.131a9.935 9.935 0 0 0 9.935 9.934h318.065v-192a56 56 0 0 0 -56-56z" fill="#ffbe92"/><path d="m168.056 270.885a120.017 120.017 0 0 0 -144.463 172.253c21.728-109.33 106.2-156.288 144.463-172.253z" fill="#fafcfc" opacity=".3"/></svg>