<svg id="Layer_1" height="512" viewBox="0 0 512 512" width="512" xmlns="http://www.w3.org/2000/svg" data-name="Layer 1"><path d="m0 448h512v64h-512z" fill="#90e3f5"/><path d="m336 448v-160a56 56 0 0 0 -56-56h-64v-44h-64v44h-64a56 56 0 0 0 -56 56v159.3" fill="#ffbe92"/><circle cx="56" cy="168" fill="#f69038" r="16"/><circle cx="298.607" cy="488" fill="#fff" r="16"/><path d="m362.991 140.281 13.678-25.009 13.678 25.009 25.008 13.677-25.008 13.678-13.678 25.009-13.678-25.009-25.008-13.678z" fill="#90e3f5"/><path d="m280 184h16v16h-16z" fill="#90e3f5"/><path d="m80 496h16v16h-16z" fill="#fff"/><path d="m312 72h16v16h-16z" fill="#90e3f5"/><path d="m0 88h16v16h-16z" fill="#90e3f5"/><g fill="#7a3909"><path d="m304 363.602h128v16h-128z"/><path d="m304 384h128v16h-128z"/><path d="m304 419.602h128v16h-128z"/><path d="m312 448h-16v-130a38.043 38.043 0 0 1 38-38h12.333a38.043 38.043 0 0 1 38 38v18h-16v-18a22.025 22.025 0 0 0 -22-22h-12.333a22.025 22.025 0 0 0 -22 22z"/><path d="m440 448h-16v-130a38.043 38.043 0 0 1 38-38h12.333a38.043 38.043 0 0 1 38 38v18h-16v-18a22.025 22.025 0 0 0 -22-22h-12.333a22.025 22.025 0 0 0 -22 22z"/></g><path d="m264 448v-40c48-48 0-88 0-88v-88h-24v68a20 20 0 0 1 -20 20h-72a20 20 0 0 1 -20-20v-68h-24v88s-48 40 0 88v39z" fill="#f69038"/><path d="m216 201.465v-13.465h-64v23.391a112.811 112.811 0 0 0 64-9.926z" fill="#232626" opacity=".2"/><path d="m128 72h120a0 0 0 0 1 0 0v68a60 60 0 0 1 -60 60 60 60 0 0 1 -60-60v-68a0 0 0 0 1 0 0z" fill="#ffbe92"/><path d="m168 8h40a40 40 0 0 1 40 40v24a0 0 0 0 1 0 0h-120a0 0 0 0 1 0 0v-24a40 40 0 0 1 40-40z" fill="#f69038"/><path d="m128 96h24v16h-24z" fill="#a95a18"/><path d="m224 96h24v16h-24z" fill="#a95a18"/><path d="m176 96h24v16h-24z" fill="#a95a18"/><path d="m128 95.111s-16-16-24 0v24.889s8 16 24 16z" fill="#ffbe92"/><path d="m248 95.111s16-16 24 0v24.889s-8 16-24 16z" fill="#ffbe92"/><path d="m152 96h24v24h-24z" fill="#f69038"/><path d="m176 128h-24a8 8 0 0 1 -8-8v-24a8 8 0 0 1 8-8h24a8 8 0 0 1 8 8v24a8 8 0 0 1 -8 8zm-16-16h8v-8h-8z" fill="#f69038"/><path d="m200 96h24v24h-24z" fill="#f69038"/><path d="m224 128h-24a8 8 0 0 1 -8-8v-24a8 8 0 0 1 8-8h24a8 8 0 0 1 8 8v24a8 8 0 0 1 -8 8zm-16-16h8v-8h-8z" fill="#f69038"/><path d="m186.222 8h-18.222a40 40 0 0 0 -40 40v47.111c5.641-45.755 39.024-74.271 58.222-87.111z" fill="#fafcfc" opacity=".3"/><path d="m104 408v19.6h160v-19.6a87.192 87.192 0 0 0 12.841-16c-.3 0-75.9-.648-132.841 0-57.056.65-40-72-40-72s-48 40 0 88z" fill="#232626" opacity=".2"/><path d="m187.636 433.009 13.678-25.009 13.677 25.009 25.009 13.677-25.009 13.678-13.677 25.009-13.678-25.009-25.009-13.678z" fill="#fff"/></svg>