<svg id="Layer_1" height="512" viewBox="0 0 512 512" width="512" xmlns="http://www.w3.org/2000/svg" data-name="Layer 1"><path d="m412.464 443.183-3.432-15.628 77.342-16.986a18.756 18.756 0 0 0 9.626-16.45v-31.219a18.868 18.868 0 0 0 -26.3-17.343l-29.215 12.292-6.206-14.749 29.166-12.271a34.868 34.868 0 0 1 48.555 32.071v31.221a34.678 34.678 0 0 1 -19.274 31.187 8.037 8.037 0 0 1 -1.862.659z" fill="#6fddef"/><path d="m447.5 419.107-38.465 8.448 3.432 15.628 23.389-5.137a102.435 102.435 0 0 0 11.644-18.939z" fill="#56cedb"/><path d="m434.279 343.1 6.205 14.748 23.384-9.839c.406-6.875.5-12.865.465-17.529-.3.117-.594.222-.888.348z" fill="#56cedb"/><path d="m400 320h-16v-16h13.619c7.141-4.856 33.815-24.678 40.227-53.671 3.872-17.508-.335-35.64-12.5-53.892-11.283-16.923-29.977-23.191-55.56-18.63a139.2 139.2 0 0 0 -37.908 13.193 8.027 8.027 0 0 1 -3.878 1h-16v-16h14.019a154.8 154.8 0 0 1 40.551-13.871c32.168-5.848 57.1 2.946 72.087 25.434 14.7 22.056 19.679 44.376 14.786 66.339-8.936 40.105-47.655 63.946-49.3 64.942a8 8 0 0 1 -4.143 1.156z" fill="#7a3909"/><path d="m145.827 448s-185.827-8-113.827-192c0 0 40-120-24-144l40-16s64 64 32 168 16 80 16 80" fill="#f69038"/><path d="m184 280c48-56 40-160 40-160h-48l-3.721 40.335a110.054 110.054 0 0 1 -31.545 67.971 151.527 151.527 0 0 0 -44.734 107.694c0 66.88 43.987 123.672 104 144h32c-57.992-32-96-144-48-200z" fill="#f69038"/><path d="m320 272c-48-56-37.823-152-37.823-152h-58.177s8 104-40 160-9.992 168 48 200h104v-160c8-16-9.933-40.921-16-48z" fill="#f69038"/><path d="m400 320c0-48-25.554-72.145-43.45-90.4a111.476 111.476 0 0 1 -31.514-65.33l-5.036-44.27h-37.823s-10.177 96 37.823 152c6.067 7.079 24 32 16 48v160h8z" fill="#a95a18"/><circle cx="256" cy="256" fill="#90e3f5" r="24"/><path d="m379.636 83.636 13.678-25.009 13.677 25.009 25.009 13.678-25.009 13.677-13.677 25.009-13.678-25.009-25.009-13.677z" fill="#90e3f5"/><path d="m288 360h16" fill="none" stroke="#000" stroke-linejoin="round" stroke-width="16"/><path d="m344 256h16v16h-16z" fill="#fff"/><path d="m464 272h16v16h-16z" fill="#f69038"/><path d="m192 304h16v16h-16z" fill="#fff"/><path d="m104 480h376v24h-376z" fill="#7a3909"/><path d="m264 56v-32a16 16 0 0 0 -16-16 16 16 0 0 0 -16 16v32" fill="#7a3909"/><path d="m248 48a72 72 0 0 0 -72 72h40s0-56 32-72z" fill="#f69038"/><path d="m248 48c-32 16-32 72-32 72h64s0-56-32-72z" fill="#e57520"/><path d="m248 48c32 16 32 72 32 72h40a72 72 0 0 0 -72-72z" fill="#9e4c0e"/><path d="m448 360c0 66.274-46.562 120-104 120s-104-53.726-104-120v-40h208z" fill="#90e3f5"/><g fill="#fafcfc"><path d="m282.886 320h-42.886v40c0 66.274 46.563 120 104 120-73.367-16.2-64.916-128.8-61.114-160z" opacity=".3"/><path d="m275.4 53.413a72.008 72.008 0 0 0 -99.287 62.568c54.755-11.692 85.636-44.075 99.287-62.568z" opacity=".3"/><path d="m30.132 103.147-22.132 8.853c64 24 24 144 24 144-12.156 31.065-16.955 57.108-16.547 78.948 78.986-124.137 45.587-197.054 14.679-231.801z" opacity=".3"/><path d="m184 280c48-56 40-160 40-160h-48l-3.721 40.335a110.054 110.054 0 0 1 -31.545 67.971 151.527 151.527 0 0 0 -44.734 107.694c0 66.88 43.987 123.672 104 144h32c-57.992-32-96-144-48-200z" opacity=".3"/></g></svg>