<svg id="Layer_1" height="512" viewBox="0 0 512 512" width="512" xmlns="http://www.w3.org/2000/svg" data-name="Layer 1"><circle cx="400" cy="440" fill="#90e3f5" r="24"/><path d="m240 408h16v16h-16z" fill="#f69038"/><path d="m256 48h16v16h-16z" fill="#f69038"/><path d="m240 272 48 48" fill="none" stroke="#000" stroke-linejoin="round" stroke-width="16"/><path d="m90.05 200h29.95a0 0 0 0 1 0 0v29.95a26.05 26.05 0 0 1 -26.05 26.05h-29.95a0 0 0 0 1 0 0v-29.95a26.05 26.05 0 0 1 26.05-26.05z" fill="#02878e"/><path d="m8 184h29.95a26.05 26.05 0 0 1 26.05 26.05v29.95a0 0 0 0 1 0 0h-29.95a26.05 26.05 0 0 1 -26.05-26.05v-29.95a0 0 0 0 1 0 0z" fill="#02878e" transform="matrix(-1 0 0 -1 72 424)"/><path d="m56 144h16v152h-16z" fill="#f69038"/><path d="m64 160-20.686-20.686a16 16 0 0 1 0-22.627l20.686-28.687 20.686 28.686a16 16 0 0 1 0 22.627z" fill="#02878e"/><path d="m194.05 96h29.95a0 0 0 0 1 0 0v29.95a26.05 26.05 0 0 1 -26.05 26.05h-29.95a0 0 0 0 1 0 0v-29.95a26.05 26.05 0 0 1 26.05-26.05z" fill="#02878e"/><path d="m112 112h29.95a26.05 26.05 0 0 1 26.05 26.05v29.95a0 0 0 0 1 0 0h-29.95a26.05 26.05 0 0 1 -26.05-26.05v-29.95a0 0 0 0 1 0 0z" fill="#02878e" transform="matrix(-1 0 0 -1 280 280)"/><g fill="#90e3f5"><path d="m96 428a20 20 0 0 1 -40 0c0-11.046 20-36 20-36s20 24.954 20 36z"/><path d="m48 484a20 20 0 0 1 -40 0c0-11.046 20-36 20-36s20 24.954 20 36z"/><path d="m48 364a20 20 0 0 1 -40 0c0-11.046 20-36 20-36s20 24.954 20 36z"/></g><path d="m160 64h16v392h-16z" fill="#f69038"/><path d="m512 495-32 1s-184 0-272-32-144 40-144 40h448z" fill="#7a3909"/><path d="m310.982 377.567-202.962-25.37 5.657-39.598 158.323 20.651z" fill="#69d1e2"/><path d="m108.02 352.197-28.284 16.97 11.314-79.196 22.627 22.628" fill="#0f8ca8"/><path d="m445.136 217.8-11.029-11.6 17.564-16.711c2.087-7.39 9.24-34.917 8.806-63.567l-29.242-73.429c-1.856-1.819-3.816-3.575-5.841-5.233-15.172-12.414-29.635-17.081-42.978-13.867-26.632 6.408-42.285 41.517-42.44 41.871a8.206 8.206 0 0 1 -.537 1.021l-14.865 23.936-13.592-8.441 14.581-23.48c2.417-5.309 20.426-42.552 53.036-50.448 18.495-4.48 37.649 1.249 56.928 17.023a103.517 103.517 0 0 1 8.236 7.516 8.01 8.01 0 0 1 1.727 2.647l30.39 76.315a7.985 7.985 0 0 1 .565 2.768c.877 36.572-9.616 70.633-10.063 72.065a8 8 0 0 1 -2.122 3.411z" fill="#076372"/><path d="m512 24h-24l-72-16s-15.863 16.229 24.137 40.229l-39.908 26.285a9.89 9.89 0 0 0 -2.743 13.714l5.671 8.507a9.89 9.89 0 0 0 12.651 3.36 9.89 9.89 0 0 1 12.9 3.757l14.311 23.848a9.89 9.89 0 0 0 13.387 3.5l47.594-27.2h8" fill="#f9ac78"/><rect fill="#90e3f5" height="256" rx="30" transform="matrix(.707 -.707 .707 .707 -71.613 299.572)" width="248" x="201.809" y="108.231"/><path d="m321.009 241.009 13.677-25.009 13.678 25.009 25.009 13.677-25.009 13.678-13.678 25.009-13.677-25.009-25.009-13.678z" fill="#f69038"/><path d="m208 224h16v16h-16z" fill="#fff"/><path d="m352.02 87.08-7.826-7.826a30 30 0 0 0 -42.426 0l-132.937 132.935a30 30 0 0 0 0 42.427l127.226 127.226c-13.134-29.454-34.21-78.822-48.057-121.842-18.187-56.5 75.6-147.113 104.02-172.92z" fill="#fafcfc" opacity=".3"/><path d="m168 80-20.686-20.686a16 16 0 0 1 0-22.627l20.686-28.687 20.686 28.686a16 16 0 0 1 0 22.627z" fill="#02878e"/></svg>