<svg id="Layer_1" height="512" viewBox="0 0 512 512" width="512" xmlns="http://www.w3.org/2000/svg" data-name="Layer 1"><path d="m312 352v128l-48 24h128l-48-24v-128z" fill="#69d1e2"/><path d="m312 480-48 24h54.3l9.7-24v-128h-16z" fill="#fafcfc" opacity=".3"/><path d="m104 8h56v112h-56z" fill="#f69038"/><path d="m104 8h56v24h-56z" fill="#a95a18"/><circle cx="464" cy="168" fill="#90e3f5" r="24"/><circle cx="32" cy="104" fill="#f69038" r="24"/><path d="m259.636 65.009 13.678-25.009 13.677 25.009 25.009 13.677-25.009 13.678-13.677 25.009-13.678-25.009-25.009-13.678z" fill="#90e3f5"/><path d="m411.636 377.009 13.678-25.009 13.677 25.009 25.009 13.677-25.009 13.678-13.677 25.009-13.678-25.009-25.009-13.678z" fill="#f69038"/><path d="m0 337h16v16h-16z" fill="#f69038"/><path d="m168 200h16" fill="none" stroke="#000" stroke-linejoin="round" stroke-width="16"/><path d="m400 56h16v16h-16z" fill="#f69038"/><path d="m256 392h16v16h-16z" fill="#f69038"/><path d="m488 464h-40c-8.837 0-16 8.954-16 20s7.163 20 16 20h40" fill="#7a3909"/><path d="m321.068 247.3c7.008-4.45 47.446-28.2 83.437-8.228l-4.505-63.072h-144l-5.082 71.152c8.998-2.41 37.717-8.584 70.15.148z" fill="#69d1e2"/><path d="m321.068 247.3a122.29 122.29 0 0 1 22.932 8.7s37.649 15.058 61.81 1.346l-1.305-18.271c-35.991-19.967-76.429 3.778-83.437 8.225z" fill="#90e3f5"/><path d="m344 256a122.29 122.29 0 0 0 -22.932-8.7c-.7.442-1.068.7-1.068.7s.373-.255 1.068-.7c-32.433-8.735-61.152-2.561-70.15-.151l-2.918 40.851c0 39.764 40.235 72 80 72s80-32.236 80-72l-2.19-30.654c-24.161 13.712-61.81-1.346-61.81-1.346z" fill="#02878e"/><path d="m186 136h-26v-16h-56v16h-26a30 30 0 0 0 -30 30v318a20 20 0 0 0 20 20h128a20 20 0 0 0 20-20v-318a30 30 0 0 0 -30-30z" fill="#0f8ca8"/><path d="m48 232h168v136h-168z" fill="#f69038"/><ellipse cx="488" cy="484" fill="#a95a18" rx="16" ry="20"/><circle cx="132" cy="300" fill="#a95a18" r="44"/><g fill="#fafcfc"><path d="m88 136h-10a30 30 0 0 0 -30 30v318a20 20 0 0 0 20 20h20z" opacity=".3"/><path d="m104 8h24v128h-24z" opacity=".3"/><path d="m288 312v-136h-32l-8 112c0 39.764 40.235 72 80 72-40-8-40-48-40-48z" opacity=".3"/></g></svg>