<svg id="Layer_1" height="512" viewBox="0 0 512 512" width="512" xmlns="http://www.w3.org/2000/svg" data-name="Layer 1"><path d="m368 512c-17.715 0-33.275-2.924-46.249-8.689-10.066-4.475-14.891-9.137-15.408-9.653l5.657-5.658 5.589-5.724c.143.137 14.821 13.724 50.411 13.724 7.6 0 15.227-6.122 17-13.648 1.758-7.443-2.711-14.261-12.581-19.2-10.68-5.343-52.508 2.057-89.409 8.585-68.51 12.121-139.341 24.652-161.257-2.737-9.491-11.864-12.353-23.411-8.5-34.321 8.343-23.659 45.824-32.826 50.84-33.953l32.254-8.462 4.061 15.477-32.4 8.5c-.1.026-.2.05-.3.072-8.734 1.953-34.732 10.5-39.372 23.7-2.833 8.059 3.751 16.288 5.914 18.992 8.246 10.31 33.811 11.109 53.8 9.966 27.762-1.588 60.508-7.381 92.176-12.983 52.04-9.207 84.677-14.478 99.353-7.14 16.676 8.338 24.524 22.238 21 37.184-3.499 14.802-17.504 25.968-32.579 25.968z" fill="#07626b"/><circle cx="256" cy="248" fill="#087182" r="184"/><g fill="#f69038"><path d="m40 128h16v16h-16z"/><path d="m80 480h16v16h-16z"/><path d="m448 352h16v16h-16z"/></g><circle cx="156" cy="44" fill="#90e3f5" r="20"/><path d="m478.142 121.858 25.858 14.142-25.858 14.142-14.142 25.858-14.142-25.858-25.858-14.142 25.858-14.142 14.142-25.858z" fill="#90e3f5"/><path d="m62.142 353.858 25.858 14.142-25.858 14.142-14.142 25.858-14.142-25.858-25.858-14.142 25.858-14.142 14.142-25.858z" fill="#f69038"/><path d="m2.055 427.02h149.847v16.001h-149.847z" fill="#a95a18" transform="matrix(.707 -.707 .707 .707 -285.06 181.847)"/><path d="m427.02 360.097h16.001v149.847h-16.001z" fill="#a95a18" transform="matrix(.707 -.707 .707 .707 -180.192 435.021)"/><path d="m209.963 284.44a267.151 267.151 0 0 0 37.849-22.98c-35.14-83.745-10.4-187.186-8-196.743a183.148 183.148 0 0 0 -40.043 8.046c-2.95 10.103-33.107 118.959 10.194 211.677z" fill="#77d8e8"/><path d="m247.813 261.46c99.721-72.906 86.643-179.76 86.621-179.94a183.272 183.272 0 0 0 -78.434-17.52c-5.455 0-10.85.251-16.184.717-2.408 9.557-27.144 112.998 7.997 196.743z" fill="#90e3f5"/><path d="m164.305 303.137a334.649 334.649 0 0 0 45.658-18.7c-43.3-92.719-13.144-201.574-10.19-211.677a183.277 183.277 0 0 0 -47.84 23.487c-1.514 5.674-29.433 113.605 12.372 206.89z" fill="#90e3f5"/><path d="m381.682 113.629a184.315 184.315 0 0 0 -47.249-32.109c.022.18 13.1 107.035-86.621 179.94v.006a267.379 267.379 0 0 1 -37.85 22.979 334.887 334.887 0 0 1 -45.659 18.695v.006-.006a461.713 461.713 0 0 1 -77.268 17.8 183.882 183.882 0 0 0 23.8 40.125c271.76-39.965 270.849-247.074 270.847-247.436z" fill="#77d8e8"/><path d="m277.172 361.725c21.143 16.282 47.221 29.493 79.177 40.513a184.929 184.929 0 0 0 38.263-33.238c-27.721-5.94-59.092-18.394-78.923-30.02a314.977 314.977 0 0 1 -38.517 22.745z" fill="#90e3f5"/><path d="m424 172.858s-8.309 96.874-108.311 166.122c19.831 11.626 51.2 24.08 78.923 30.02a184.149 184.149 0 0 0 29.388-196.142z" fill="#77d8e8"/><path d="m277.172 361.725a372.145 372.145 0 0 1 -50.972 20.775c22.718 17.793 48.972 31.163 84.952 41.09a183.167 183.167 0 0 0 45.2-21.349c-31.959-11.023-58.037-24.234-79.18-40.516z" fill="#77d8e8"/><path d="m276.3 361.066c.285.222.582.438.869.659 136.512-68.265 146.831-188.865 146.831-188.865a184.436 184.436 0 0 0 -42.318-59.231c0 .363.913 207.471-270.846 247.437a185.023 185.023 0 0 0 41.4 38.9c50.379-7.895 91.451-21.492 124.935-38.236-.286-.23-.582-.441-.871-.664z" fill="#1396a3"/><path d="m376.579 81.465h91.911v16.001h-91.911z" fill="#a95a18" transform="matrix(.707 -.707 .707 .707 60.496 324.981)"/><path d="m116.304 127.618-64.991-65.961 11.314-11.314 64.991 65.961z" fill="#a95a18"/><path d="m289.442 67.041a184.127 184.127 0 0 0 -215.933 204.613c148.191-32.97 199.827-150.874 215.933-204.613z" fill="#fafcfc" opacity=".3"/><circle cx="472" cy="40" fill="#f69038" r="32"/><path d="m440 40a31.947 31.947 0 0 0 1.62 10.052 32 32 0 0 0 48.951-36.1 31.991 31.991 0 0 0 -50.571 26.048z" fill="#fafcfc" opacity=".3"/><circle cx="40" cy="40" fill="#f69038" r="32"/><path d="m8 40a31.947 31.947 0 0 0 1.62 10.052 32 32 0 0 0 48.951-36.1 31.991 31.991 0 0 0 -50.571 26.048z" fill="#fafcfc" opacity=".3"/></svg>