<svg id="Layer_1" height="512" viewBox="0 0 512 512" width="512" xmlns="http://www.w3.org/2000/svg" data-name="Layer 1"><path d="m304 120s72 8 80 88c0 0-64-8-88-56" fill="#06535b"/><path d="m256 469.54v34.46l-136.638-.032a30 30 0 0 1 -31.362-29.968v-14.868a30 30 0 0 1 25.438-29.651l70.562-13.481h144l68.137 6.01a30 30 0 0 1 27.863 29.924v22.066a30 30 0 0 1 -30 30h-114v-31.734z" fill="#0f8ca8"/><circle cx="440" cy="288" fill="#f69038" r="24"/><path d="m99.355 144.012 27.356-8.012-8.013 27.355 8.013 27.356-27.356-8.013-27.355 8.013 8.012-27.356-8.012-27.355z" fill="#90e3f5"/><path d="m72 280h16v16h-16z" fill="#f69038"/><path d="m416 136h16v16h-16z" fill="#90e3f5"/><path d="m256 456h24l8-16s64 16 72 32l-104 8z" fill="#ffbe92"/><path d="m256 264a48 48 0 0 0 48-48h-24v-48h-48v48h-24a48 48 0 0 0 48 48z" fill="#ffbe92"/><path d="m328 216h-24a48 48 0 0 1 -96 0h-24v104l16 32-16 64h144l-16-64 16-32z" fill="#90e3f5"/><path d="m184 216h-10a30 30 0 0 0 -30 30v106l-56 40s-24-24-40-16l8 24-40 24 8.218 10.957a30 30 0 0 0 38.708 8.143l105.074-59.1 16-64z" fill="#ffbe92"/><path d="m328 216h10a30 30 0 0 1 30 30v106l56 40s24-24 40-16l-8 24 40 24-8.218 10.957a30 30 0 0 1 -38.708 8.147l-105.074-59.104-16-64z" fill="#ffbe92"/><path d="m151.846 436h104.307v16h-104.307z" fill="#076372" transform="matrix(.997 -.077 .077 .997 -33.462 16.959)"/><path d="m376 456h48v-4.066a29.894 29.894 0 0 0 -2.478-11.934h-45.522z" fill="#076372"/><path d="m280 168h-48v28.241a140.178 140.178 0 0 0 48-14.322z" fill="#232626" opacity=".2"/><path d="m208 125.666a71.821 71.821 0 0 1 -24-53.666c0-39.765 32.235-64 72-64s72 24.235 72 64a71.821 71.821 0 0 1 -24 53.666" fill="#076372"/><path d="m256 176c-28.4 0-48-27.6-48-56v-40l96-16v56c0 28.4-19.6 56-48 56z" fill="#ffbe92"/><path d="m272 96h16v16h-16z" fill="#843f0c"/><path d="m224 96h16v16h-16z" fill="#843f0c"/><path d="m259.863 8.08q-1.919-.08-3.863-.08c-39.765 0-72 24.235-72 64a71.714 71.714 0 0 0 6.655 30.252c9.563-45.952 48.96-79.565 69.208-94.172z" fill="#fafcfc" opacity=".3"/></svg>